<svg xmlns="http://www.w3.org/2000/svg" width="200" height="100" viewBox="0,0,200,100"><rect width="100%" height="100%" fill="#ffffff"/><path d="M8 31 C96 92,81 96,189 78" stroke="#e43964" fill="none"/><path d="M2 44 C100 75,115 85,181 90" stroke="#9476ee" fill="none"/><path fill="#75df75" d="M20.61 65.61L22.80 62.42L22.82 62.45Q24.42 64.10 26.58 65.39L26.77 65.58L26.68 65.49Q28.79 66.74 31.99 66.74L32.06 66.81L32.11 66.87Q35.35 66.86 37.42 65.09L37.40 65.07L37.38 65.05Q39.44 63.27 39.44 60.24L39.39 60.20L39.43 60.24Q39.36 58.60 38.77 57.28L38.81 57.32L38.74 57.25Q38.34 56.12 36.99 55.17L36.92 55.09L36.90 55.07Q35.60 54.17 33.41 53.66L33.44 53.68L33.36 53.60Q31.19 53.11 27.99 53.11L28.04 53.16L28.04 49.63L28.01 49.60Q30.92 49.65 32.85 49.15L32.78 49.08L32.82 49.12Q34.70 48.57 35.91 47.67L35.82 47.58L35.89 47.65Q37.06 46.73 37.57 45.49L37.67 45.60L37.68 45.61Q38.10 44.29 38.10 42.89L38.09 42.88L38.04 42.83Q38.18 40.34 36.53 38.83L36.54 38.84L36.46 38.76Q34.83 37.27 31.97 37.27L32.03 37.32L31.97 37.27Q29.73 37.27 27.85 38.27L27.87 38.29L27.93 38.35Q25.97 39.27 24.34 40.90L24.29 40.85L21.84 37.94L21.88 37.99Q23.92 35.99 26.41 34.73L26.46 34.78L26.43 34.75Q29.02 33.59 32.21 33.59L32.11 33.48L32.13 33.50Q34.58 33.60 36.54 34.22L36.49 34.17L36.36 34.04Q38.31 34.65 39.74 35.79L39.77 35.83L39.73 35.79Q41.18 36.96 41.97 38.64L41.95 38.62L41.99 38.66Q42.76 40.33 42.76 42.51L42.77 42.52L42.78 42.53Q42.82 45.82 41.03 47.89L41.02 47.88L41.09 47.96Q39.25 49.97 36.33 51.09L36.43 51.19L36.29 51.28L36.40 51.38Q37.99 51.75 39.39 52.50L39.28 52.39L39.32 52.43Q40.77 53.23 41.83 54.38L41.85 54.40L41.85 54.40Q42.98 55.61 43.57 57.12L43.48 57.04L43.55 57.10Q44.00 58.48 44.00 60.33L44.11 60.44L44.04 60.37Q44.02 62.70 43.10 64.60L43.08 64.59L43.04 64.55Q42.22 66.55 40.62 67.87L40.68 67.93L40.55 67.80Q39.00 69.16 36.87 69.86L36.79 69.78L36.93 69.92Q34.84 70.66 32.38 70.66L32.32 70.60L32.27 70.55Q30.20 70.61 28.44 70.19L28.43 70.18L28.32 70.07Q26.72 69.81 25.26 69.11L25.22 69.07L25.16 69.01Q23.65 68.26 22.50 67.36L22.63 67.49L22.66 67.52Q21.51 66.63 20.62 65.62L20.52 65.52Z"/><path d="M20 1 C101 49,103 2,182 31" stroke="#7bb5ee" fill="none"/><path fill="#8e4ad3" d="M94.96 69.87L94.91 69.82L95.00 69.91Q95.18 64.83 95.85 60.63L95.96 60.74L95.94 60.72Q96.47 56.37 97.67 52.59L97.69 52.61L97.83 52.75Q99.04 48.98 100.92 45.45L100.81 45.34L100.89 45.43Q102.82 41.94 105.45 38.25L105.39 38.19L87.53 38.14L87.64 34.27L110.49 34.10L110.62 37.09L110.60 37.07Q107.35 41.05 105.37 44.75L105.44 44.82L105.41 44.79Q103.35 48.41 102.17 52.25L102.22 52.29L102.26 52.34Q101.11 56.20 100.58 60.48L100.60 60.50L100.53 60.44Q100.03 64.75 99.81 69.96L99.81 69.96L95.03 69.94Z"/><path fill="#6aebaa" d="M59.61 57.66L59.65 54.18L72.54 54.19L72.42 57.59L59.67 57.72Z"/><path fill="#a872de" d="M119.89 47.07L119.93 43.65L143.94 43.63L143.99 47.15L119.96 47.15ZM120.05 59.16L120.08 55.72L144.05 55.66L144.08 59.17L120.08 59.19Z"/><path d="M4 75 C117 10,106 40,187 32" stroke="#e43e91" fill="none"/><path fill="#5cdf5c" d="M166.19 58.92L162.16 58.92L162.08 58.84Q161.80 56.71 162.28 54.95L162.19 54.86L162.21 54.89Q162.67 53.10 163.51 51.61L163.56 51.67L163.47 51.58Q164.45 50.24 165.54 48.95L165.46 48.86L165.47 48.88Q166.55 47.57 167.50 46.31L167.42 46.23L167.55 46.36Q168.41 45.01 169.05 43.72L169.11 43.78L169.03 43.70Q169.68 42.41 169.68 40.90L169.82 41.04L169.74 40.97Q169.63 38.62 168.26 37.02L168.37 37.13L168.37 37.13Q166.99 35.52 164.30 35.52L164.29 35.52L164.24 35.47Q162.43 35.50 160.78 36.37L160.89 36.49L160.87 36.47Q159.05 37.16 157.76 38.68L157.87 38.78L155.31 36.44L155.19 36.33Q156.97 34.30 159.27 32.98L159.38 33.10L159.33 33.04Q161.52 31.63 164.55 31.63L164.67 31.75L164.68 31.76Q168.95 31.66 171.55 34.04L171.55 34.04L171.58 34.07Q174.17 36.44 174.17 40.64L174.18 40.64L174.29 40.75Q174.30 42.61 173.63 44.12L173.58 44.07L173.61 44.11Q172.77 45.45 171.79 46.79L171.81 46.81L171.87 46.87Q170.97 48.29 169.87 49.61L169.72 49.46L169.86 49.60Q168.79 50.93 167.86 52.33L167.74 52.21L167.77 52.24Q166.92 53.71 166.42 55.31L166.33 55.22L166.41 55.30Q165.78 56.77 166.00 58.73L166.17 58.90ZM160.88 67.10L160.80 67.03L160.89 67.12Q160.79 65.39 161.75 64.41L161.92 64.58L161.86 64.53Q162.84 63.57 164.24 63.57L164.26 63.60L164.21 63.54Q165.66 63.60 166.64 64.58L166.55 64.48L166.64 64.58Q167.63 65.57 167.63 67.19L167.46 67.02L167.57 67.13Q167.64 68.72 166.66 69.70L166.63 69.67L166.51 69.54Q165.51 70.50 164.11 70.50L164.28 70.67L164.10 70.49Q162.78 70.57 161.83 69.59L161.77 69.53L161.84 69.60Q160.81 68.54 160.81 67.03Z"/></svg>