<svg xmlns="http://www.w3.org/2000/svg" width="200" height="100" viewBox="0,0,200,100"><rect width="100%" height="100%" fill="#ffffff"/><path d="M15 21 C110 93,94 44,192 22" stroke="#9fee85" fill="none"/><path fill="#88f1a2" d="M37.04 65.54L39.49 62.61L39.47 62.59Q40.98 64.16 43.14 65.45L43.08 65.39L43.16 65.47Q45.41 66.85 48.60 66.85L48.51 66.76L48.59 66.84Q51.70 66.70 53.77 64.94L53.91 65.07L53.74 64.91Q55.92 63.25 55.92 60.23L55.84 60.15L55.90 60.21Q55.97 58.71 55.39 57.40L55.29 57.31L55.35 57.36Q54.69 55.97 53.34 55.02L53.46 55.13L53.40 55.07Q52.13 54.20 49.94 53.69L49.89 53.64L49.85 53.60Q47.61 53.04 44.42 53.04L44.48 53.10L44.48 49.58L44.54 49.63Q47.28 49.51 49.21 49.01L49.26 49.06L49.31 49.11Q51.20 48.56 52.40 47.67L52.42 47.69L52.50 47.77Q53.67 46.84 54.18 45.61L54.02 45.45L54.03 45.46Q54.71 44.40 54.71 43.00L54.71 43.00L54.54 42.83Q54.67 40.33 53.02 38.82L52.88 38.68L52.92 38.72Q51.33 37.27 48.48 37.27L48.44 37.23L48.42 37.22Q46.29 37.33 44.42 38.34L44.44 38.36L44.36 38.28Q42.57 39.37 40.95 41.00L40.88 40.93L38.35 37.96L38.39 38.00Q40.54 36.11 43.03 34.85L42.88 34.70L43.04 34.86Q45.39 33.46 48.58 33.46L48.61 33.49L48.67 33.54Q51.07 33.60 53.03 34.21L52.99 34.17L53.04 34.22Q54.81 34.65 56.24 35.80L56.26 35.81L56.38 35.94Q57.83 37.11 58.62 38.79L58.49 38.66L58.49 38.66Q59.23 40.30 59.23 42.49L59.37 42.62L59.34 42.60Q59.31 45.81 57.52 47.88L57.58 47.94L57.63 48.00Q55.68 49.91 52.77 51.03L52.92 51.18L52.85 51.33L52.85 51.34Q54.51 51.76 55.91 52.52L55.84 52.45L55.81 52.42Q57.29 53.26 58.36 54.41L58.41 54.46L58.39 54.43Q59.34 55.47 59.93 56.98L60.03 57.08L60.03 57.08Q60.57 58.55 60.57 60.40L60.57 60.40L60.48 60.31Q60.64 62.82 59.72 64.73L59.60 64.61L59.69 64.70Q58.81 66.65 57.21 67.96L57.17 67.92L57.21 67.96Q55.50 69.16 53.37 69.86L53.35 69.84L53.35 69.84Q51.36 70.67 48.89 70.67L48.72 70.50L48.75 70.53Q46.69 70.60 44.93 70.18L44.89 70.15L44.90 70.15Q43.15 69.74 41.69 69.04L41.68 69.03L41.60 68.95Q40.13 68.24 38.99 67.35L39.04 67.40L39.14 67.50Q37.97 66.58 37.07 65.57L36.94 65.44Z"/><path fill="#de4444" d="M89.56 69.96L89.50 66.09L97.69 66.10L97.65 39.74L91.12 39.72L91.16 36.78L91.09 36.72Q93.58 36.29 95.40 35.64L95.38 35.63L95.54 35.78Q97.33 35.12 98.79 34.22L98.82 34.25L102.35 34.26L102.35 66.17L109.67 66.11L109.67 69.91L89.42 69.82Z"/><path fill="#4c4ce5" d="M136.59 47.27L136.45 43.66L160.50 43.69L160.52 47.18L136.50 47.18ZM136.51 59.12L136.43 55.57L160.59 55.70L160.50 59.08L136.48 59.10Z"/><path fill="#f0839e" d="M15.31 69.96L15.18 66.02L23.52 66.18L23.42 39.77L16.90 39.74L17.00 36.88L17.00 36.88Q19.31 36.27 21.13 35.63L21.15 35.65L21.18 35.68Q23.11 35.14 24.57 34.25L24.58 34.27L27.94 34.09L28.13 66.20L35.42 66.10L35.42 69.91L15.24 69.89Z"/><path fill="#b585e4" d="M72.33 63.99L72.35 53.08L62.29 53.22L62.23 49.69L72.53 49.79L72.40 38.74L76.09 38.79L75.99 49.61L86.25 49.68L86.31 53.21L76.13 53.23L76.17 64.18L72.36 64.02Z"/><path fill="#70df70" d="M112.07 69.90L112.01 67.10L112.09 67.18Q116.02 63.05 119.16 59.80L119.22 59.87L119.30 59.94Q122.30 56.56 124.43 53.78L124.52 53.87L124.42 53.77Q126.67 51.12 127.79 48.80L127.81 48.82L127.80 48.81Q128.91 46.48 128.91 44.29L128.81 44.19L128.89 44.27Q128.86 41.17 127.18 39.21L127.19 39.21L127.29 39.32Q125.43 37.17 122.01 37.17L122.02 37.18L122.07 37.24Q119.76 37.16 117.86 38.42L118.05 38.62L117.97 38.53Q116.10 39.83 114.53 41.62L114.39 41.48L111.84 38.93L111.75 38.84Q114.00 36.39 116.52 34.91L116.55 34.94L116.69 35.07Q119.20 33.58 122.73 33.58L122.67 33.52L122.75 33.60Q127.56 33.43 130.42 36.31L130.49 36.38L130.59 36.48Q133.44 39.36 133.44 44.12L133.35 44.04L133.32 44.00Q133.42 46.62 132.32 49.17L132.27 49.11L132.33 49.17Q131.26 51.75 129.33 54.46L129.21 54.34L129.33 54.46Q127.26 57.04 124.60 59.98L124.57 59.95L124.68 60.06Q121.96 62.93 118.76 66.24L118.84 66.32L118.85 66.32Q120.31 66.21 121.88 66.10L121.89 66.12L121.90 66.13Q123.34 65.89 124.74 65.89L124.79 65.94L135.06 65.85L135.15 69.91L112.08 69.91Z"/><path fill="#a86fe0" d="M174.29 58.77L170.31 58.82L170.36 58.87Q170.00 56.66 170.48 54.90L170.51 54.93L170.54 54.96Q170.95 53.13 171.79 51.64L171.67 51.52L171.69 51.55Q172.56 50.09 173.65 48.81L173.69 48.85L173.60 48.76Q174.77 47.54 175.72 46.28L175.66 46.22L175.81 46.37Q176.76 45.11 177.40 43.82L177.30 43.71L177.35 43.77Q177.93 42.42 177.93 40.91L178.05 41.03L177.88 40.86Q178.06 38.79 176.69 37.20L176.52 37.03L176.58 37.09Q175.29 35.58 172.60 35.58L172.61 35.58L172.57 35.54Q170.75 35.57 169.10 36.44L168.98 36.32L169.03 36.37Q167.46 37.32 166.17 38.84L166.14 38.80L163.51 36.40L163.49 36.38Q165.27 34.35 167.56 33.03L167.58 33.05L167.59 33.05Q169.95 31.80 172.97 31.80L172.98 31.81L172.96 31.79Q177.19 31.65 179.79 34.03L179.76 34.00L179.76 34.00Q182.51 36.53 182.51 40.73L182.56 40.77L182.54 40.76Q182.37 42.44 181.70 43.95L181.78 44.03L181.81 44.06Q181.08 45.51 180.10 46.85L180.12 46.88L180.09 46.84Q179.21 48.29 178.12 49.60L178.09 49.57L178.03 49.51Q177.00 50.90 176.08 52.30L176.08 52.30L176.05 52.27Q175.19 53.74 174.69 55.33L174.59 55.23L174.69 55.33Q174.13 56.87 174.35 58.83L174.37 58.85ZM169.13 67.10L169.08 67.06L169.05 67.03Q169.06 65.41 170.01 64.43L170.04 64.46L170.19 64.60Q170.98 63.47 172.38 63.47L172.52 63.60L172.38 63.47Q173.88 63.57 174.86 64.55L174.92 64.60L174.89 64.58Q175.72 65.41 175.72 67.03L175.83 67.14L175.74 67.05Q175.78 68.60 174.80 69.58L174.91 69.70L174.91 69.69Q173.89 70.63 172.49 70.63L172.44 70.59L172.51 70.65Q171.02 70.57 170.07 69.59L170.14 69.66L170.04 69.55Q169.11 68.60 169.11 67.08Z"/></svg>