<svg xmlns="http://www.w3.org/2000/svg" width="200" height="100" viewBox="0,0,200,100"><rect width="100%" height="100%" fill="#ffffff"/><path fill="#87e7cf" d="M40.05 69.95L39.92 66.02L48.20 66.11L48.18 39.78L41.70 39.79L41.74 36.86L41.76 36.89Q44.20 36.41 46.02 35.77L45.96 35.71L45.89 35.63Q47.73 35.01 49.18 34.11L49.18 34.11L52.78 34.18L52.82 66.15L60.14 66.07L60.19 69.93L40.07 69.97Z"/><path d="M18 20 C107 63,88 88,196 73" stroke="#e895d3" fill="none"/><path fill="#71e8ad" d="M89.53 69.93L89.50 66.09L97.65 66.06L97.69 39.78L91.15 39.74L91.26 36.89L91.26 36.89Q93.60 36.31 95.42 35.67L95.47 35.72L95.49 35.74Q97.31 35.09 98.77 34.20L98.79 34.22L102.29 34.20L102.23 66.06L109.70 66.13L109.61 69.85L89.51 69.91Z"/><path fill="#e35de3" d="M67.89 57.69L67.81 54.09L80.75 54.15L80.68 57.61L67.84 57.65Z"/><path fill="#e98f71" d="M111.35 65.60L113.70 62.57L113.63 62.51Q115.30 64.23 117.46 65.52L117.33 65.39L117.35 65.41Q119.65 66.85 122.85 66.85L122.81 66.82L122.67 66.68Q126.11 66.87 128.19 65.10L128.02 64.94L128.14 65.05Q130.07 63.15 130.07 60.12L130.13 60.19L130.25 60.31Q130.18 58.67 129.59 57.36L129.61 57.38L129.60 57.37Q129.01 56.04 127.67 55.09L127.67 55.10L127.58 55.00Q126.37 54.18 124.18 53.68L124.21 53.71L124.20 53.70Q121.93 53.11 118.74 53.11L118.84 53.21L118.83 49.67L118.67 49.51Q121.57 49.55 123.50 49.05L123.57 49.12L123.44 48.99Q125.37 48.49 126.58 47.59L126.71 47.73L126.58 47.60Q127.94 46.85 128.44 45.62L128.43 45.61L128.40 45.58Q128.96 44.40 128.96 43.00L128.78 42.82L128.96 43.00Q128.94 40.35 127.29 38.84L127.18 38.73L127.29 38.84Q125.57 37.26 122.71 37.26L122.72 37.26L122.75 37.30Q120.49 37.27 118.61 38.28L118.58 38.25L118.66 38.33Q116.68 39.24 115.06 40.86L115.02 40.82L112.67 38.02L112.60 37.95Q114.62 35.94 117.11 34.68L117.27 34.84L117.10 34.67Q119.76 33.58 122.95 33.58L122.82 33.44L122.86 33.48Q125.18 33.46 127.14 34.07L127.16 34.09L127.15 34.08Q129.09 34.68 130.52 35.83L130.61 35.92L130.58 35.88Q132.05 37.08 132.84 38.76L132.84 38.76L132.86 38.78Q133.51 40.32 133.51 42.51L133.49 42.49L133.54 42.54Q133.49 45.74 131.69 47.81L131.69 47.81L131.82 47.93Q129.92 49.90 127.01 51.02L127.03 51.04L127.00 51.24L127.12 51.35Q128.65 51.65 130.05 52.40L130.13 52.49L130.07 52.42Q131.60 53.31 132.66 54.46L132.51 54.31L132.57 54.37Q133.64 55.52 134.22 57.03L134.21 57.01L134.24 57.05Q134.80 58.53 134.80 60.38L134.75 60.33L134.76 60.33Q134.79 62.72 133.87 64.63L133.84 64.59L133.82 64.58Q132.87 66.45 131.27 67.77L131.30 67.80L131.39 67.89Q129.70 69.11 127.57 69.81L127.66 69.90L127.72 69.96Q125.58 70.65 123.12 70.65L122.98 70.51L123.01 70.54Q120.86 70.52 119.09 70.10L119.22 70.22L119.08 70.08Q117.32 69.67 115.86 68.97L115.88 68.98L115.89 68.99Q114.47 68.33 113.32 67.43L113.26 67.37L113.28 67.39Q112.22 66.59 111.33 65.58L111.34 65.59Z"/><path fill="#dc748e" d="M136.42 47.11L136.46 43.68L160.49 43.67L160.50 47.16L136.42 47.10ZM136.57 59.18L136.41 55.55L160.59 55.71L160.54 59.13L136.40 59.01Z"/><path fill="#5798da" d="M15.28 69.93L15.24 66.08L23.39 66.06L23.37 39.71L16.91 39.76L16.93 36.80L16.88 36.75Q19.43 36.39 21.25 35.75L21.28 35.78L21.31 35.80Q23.03 35.06 24.49 34.17L24.58 34.26L28.01 34.16L28.06 66.13L35.33 66.01L35.45 69.94L15.19 69.84Z"/><path fill="#65e0e0" d="M174.25 58.72L170.28 58.79L170.36 58.87Q169.90 56.56 170.38 54.80L170.38 54.80L170.36 54.79Q170.96 53.15 171.80 51.66L171.82 51.68L171.84 51.70Q172.57 50.10 173.66 48.81L173.70 48.86L173.75 48.90Q174.86 47.64 175.81 46.38L175.69 46.25L175.75 46.32Q176.72 45.07 177.37 43.78L177.43 43.85L177.33 43.75Q177.93 42.41 177.93 40.90L178.02 41.00L177.93 40.90Q178.05 38.79 176.68 37.19L176.55 37.06L176.58 37.09Q175.28 35.56 172.59 35.56L172.49 35.46L172.54 35.51Q170.72 35.54 169.07 36.41L168.98 36.32L168.95 36.30Q167.38 37.24 166.09 38.76L166.16 38.82L163.51 36.40L163.41 36.30Q165.22 34.30 167.52 32.98L167.57 33.04L167.54 33.00Q169.92 31.77 172.94 31.77L172.93 31.76L172.83 31.66Q177.33 31.79 179.93 34.17L179.77 34.01L179.89 34.13Q182.55 36.56 182.55 40.76L182.42 40.63L182.51 40.72Q182.49 42.55 181.82 44.07L181.81 44.06L181.88 44.12Q181.04 45.47 180.06 46.82L180.09 46.84L180.10 46.86Q179.08 48.15 177.98 49.47L178.13 49.62L178.14 49.63Q176.98 50.87 176.05 52.27L176.00 52.22L176.12 52.34Q175.22 53.76 174.72 55.36L174.56 55.20L174.61 55.25Q174.05 56.80 174.28 58.76L174.28 58.76ZM169.08 67.05L169.12 67.09L169.07 67.04Q169.20 65.55 170.15 64.57L170.05 64.47L170.00 64.42Q171.03 63.51 172.43 63.51L172.37 63.46L172.38 63.47Q173.89 63.58 174.87 64.56L174.87 64.56L174.85 64.54Q175.76 65.44 175.76 67.07L175.84 67.15L175.89 67.20Q175.81 68.63 174.83 69.61L174.91 69.69L174.89 69.67Q173.82 70.56 172.42 70.56L172.39 70.53L172.54 70.68Q170.95 70.50 170.00 69.52L170.12 69.63L170.11 69.63Q169.21 68.70 169.21 67.18Z"/></svg>