<svg xmlns="http://www.w3.org/2000/svg" width="200" height="100" viewBox="0,0,200,100"><rect width="100%" height="100%" fill="#ffffff"/><path d="M8 6 C111 58,106 33,181 26" stroke="#9595e8" fill="none"/><path fill="#bae390" d="M112.01 69.85L111.99 67.08L112.15 67.24Q116.11 63.14 119.25 59.89L119.25 59.90L119.31 59.95Q122.32 56.58 124.45 53.81L124.46 53.82L124.53 53.88Q126.66 51.12 127.78 48.80L127.79 48.80L127.79 48.80Q128.92 46.49 128.92 44.31L128.78 44.17L128.79 44.18Q128.91 41.22 127.23 39.26L127.22 39.25L127.20 39.22Q125.51 37.25 122.09 37.25L122.09 37.25L122.19 37.36Q119.82 37.22 117.92 38.48L117.98 38.55L117.97 38.54Q116.01 39.74 114.44 41.53L114.55 41.64L111.89 38.98L111.89 38.98Q114.09 36.48 116.61 34.99L116.69 35.08L116.53 34.91Q119.19 33.56 122.71 33.56L122.57 33.42L122.74 33.59Q127.55 33.42 130.41 36.30L130.54 36.43L130.51 36.41Q133.32 39.24 133.32 44.00L133.39 44.08L133.27 43.95Q133.36 46.56 132.27 49.11L132.28 49.12L132.28 49.12Q131.11 51.59 129.18 54.31L129.25 54.38L129.29 54.42Q127.37 57.15 124.71 60.09L124.71 60.08L124.73 60.11Q121.94 62.92 118.75 66.22L118.86 66.33L118.84 66.31Q120.29 66.19 121.85 66.08L121.90 66.12L121.82 66.05Q123.30 65.85 124.70 65.85L124.80 65.95L135.07 65.85L135.22 69.98L111.99 69.83Z"/><path fill="#4d4dda" d="M15.29 69.94L15.30 66.14L23.38 66.05L23.43 39.78L16.94 39.78L17.00 36.87L16.96 36.83Q19.40 36.36 21.22 35.72L21.19 35.69L21.14 35.63Q23.10 35.14 24.56 34.24L24.40 34.08L27.97 34.12L28.09 66.16L35.36 66.05L35.40 69.89L15.16 69.81Z"/><path fill="#93e146" d="M39.98 69.88L39.99 66.08L48.28 66.19L48.20 39.80L41.64 39.73L41.63 36.76L41.75 36.88Q44.09 36.30 45.91 35.66L46.04 35.79L45.96 35.71Q47.85 35.13 49.30 34.23L49.21 34.14L52.81 34.21L52.78 66.11L60.16 66.10L60.25 69.99L40.08 69.98Z"/><path fill="#8787e2" d="M67.77 57.58L67.85 54.13L80.70 54.09L80.69 57.62L67.77 57.57Z"/><path fill="#9f85ef" d="M136.50 47.19L136.45 43.66L160.57 43.76L160.51 47.17L136.46 47.14ZM136.58 59.20L136.46 55.60L160.47 55.59L160.47 59.06L136.54 59.15Z"/><path fill="#8ce3e3" d="M89.47 69.87L89.48 66.07L97.62 66.04L97.77 39.86L91.18 39.77L91.25 36.87L91.19 36.82Q93.59 36.30 95.41 35.66L95.40 35.64L95.51 35.75Q97.35 35.13 98.80 34.24L98.81 34.25L102.31 34.21L102.22 66.04L109.73 66.16L109.60 69.84L89.56 69.96Z"/><path fill="#54d8d8" d="M174.37 58.84L170.25 58.76L170.39 58.90Q169.94 56.60 170.41 54.83L170.55 54.97L170.51 54.93Q170.93 53.11 171.77 51.63L171.79 51.65L171.78 51.64Q172.67 50.20 173.76 48.91L173.63 48.79L173.78 48.94Q174.72 47.50 175.68 46.24L175.70 46.27L175.76 46.32Q176.62 44.97 177.26 43.68L177.33 43.75L177.25 43.67Q177.96 42.45 177.96 40.94L177.92 40.90L178.03 41.00Q177.95 38.69 176.58 37.09L176.52 37.03L176.56 37.07Q175.28 35.56 172.59 35.56L172.60 35.57L172.56 35.54Q170.74 35.57 169.09 36.43L168.98 36.32L168.98 36.32Q167.45 37.32 166.17 38.83L166.12 38.79L163.40 36.29L163.45 36.33Q165.35 34.42 167.64 33.11L167.50 32.96L167.49 32.96Q169.89 31.74 172.91 31.74L172.86 31.69L172.91 31.74Q177.31 31.77 179.91 34.15L179.88 34.12L179.92 34.15Q182.56 36.57 182.56 40.77L182.40 40.61L182.39 40.60Q182.51 42.57 181.84 44.09L181.86 44.10L181.81 44.05Q181.10 45.53 180.12 46.88L180.15 46.91L180.17 46.93Q179.18 48.26 178.09 49.58L178.15 49.63L178.09 49.58Q176.91 50.80 175.98 52.20L176.13 52.35L176.08 52.30Q175.13 53.68 174.63 55.27L174.61 55.25L174.64 55.28Q174.12 56.86 174.34 58.82L174.30 58.78ZM169.10 67.08L169.20 67.17L169.17 67.15Q169.18 65.53 170.13 64.55L170.08 64.49L170.08 64.50Q171.03 63.52 172.43 63.52L172.40 63.49L172.44 63.53Q173.86 63.55 174.84 64.53L174.72 64.41L174.82 64.50Q175.84 65.53 175.84 67.15L175.75 67.06L175.82 67.13Q175.78 68.60 174.80 69.58L174.85 69.64L174.89 69.67Q173.93 70.67 172.53 70.67L172.39 70.54L172.34 70.48Q171.03 70.57 170.07 69.59L170.10 69.61L170.17 69.69Q169.21 68.70 169.21 67.19Z"/></svg>