<svg xmlns="http://www.w3.org/2000/svg" width="200" height="100" viewBox="0,0,200,100"><rect width="100%" height="100%" fill="#ffffff"/><path fill="#e75fa3" d="M47.58 63.99L47.62 53.10L37.41 53.08L37.44 49.65L47.74 49.75L47.74 38.83L51.29 38.74L51.23 49.60L61.50 49.68L61.43 53.08L51.24 53.08L51.25 64.02L47.66 64.07Z"/><path fill="#d750b5" d="M66.73 60.29L66.74 60.30L66.74 60.30Q66.85 61.92 67.44 63.15L67.38 63.09L67.33 63.04Q68.03 64.39 69.07 65.31L68.89 65.13L69.03 65.28Q70.04 66.18 71.44 66.68L71.40 66.64L71.37 66.61Q72.75 67.09 74.37 67.09L74.37 67.09L74.41 67.13Q77.55 67.13 79.48 65.40L79.46 65.37L79.53 65.44Q81.38 63.63 81.38 60.83L81.46 60.91L81.39 60.84Q81.40 59.11 80.62 57.88L80.74 58.00L80.66 57.92Q79.96 56.78 78.62 55.85L78.56 55.79L78.62 55.85Q77.20 54.86 75.44 54.10L75.44 54.10L75.40 54.06Q73.73 53.40 71.82 52.61L71.78 52.57L71.71 52.50Q69.60 53.97 68.17 55.91L68.17 55.90L68.21 55.94Q66.83 57.92 66.83 60.39ZM76.82 50.39L76.93 50.50L76.92 50.49Q78.59 48.74 79.57 46.94L79.60 46.98L79.61 46.99Q80.53 45.13 80.53 43.17L80.56 43.21L80.60 43.25Q80.55 40.50 78.92 38.68L79.05 38.82L79.05 38.81Q77.32 36.88 74.35 36.88L74.41 36.94L74.29 36.82Q71.83 36.89 70.21 38.46L70.19 38.44L70.19 38.44Q68.68 40.12 68.68 42.75L68.64 42.71L68.69 42.76Q68.54 44.23 69.21 45.38L69.21 45.38L69.30 45.47Q69.96 46.61 71.11 47.50L71.11 47.50L71.15 47.55Q72.36 48.50 73.84 49.20L73.78 49.14L73.78 49.13Q75.20 49.77 76.82 50.39ZM62.67 60.82L62.61 60.76L62.67 60.82Q62.70 59.12 63.29 57.63L63.25 57.59L63.13 57.47Q63.73 56.00 64.65 54.80L64.80 54.95L64.68 54.82Q65.74 53.76 66.95 52.83L66.95 52.83L66.93 52.81Q68.16 51.91 69.44 51.24L69.27 51.07L69.39 50.96L69.29 50.86Q67.44 49.57 65.93 47.58L65.87 47.53L65.96 47.62Q64.45 45.64 64.45 42.78L64.39 42.71L64.31 42.63Q64.37 40.63 65.16 38.95L65.13 38.92L65.18 38.97Q65.90 37.22 67.24 36.02L67.27 36.04L67.22 35.99Q68.55 34.78 70.40 34.11L70.50 34.21L70.42 34.13Q72.39 33.58 74.57 33.58L74.57 33.58L74.50 33.50Q76.91 33.56 78.75 34.26L78.68 34.19L78.71 34.22Q80.55 34.91 81.87 36.17L81.86 36.16L81.78 36.08Q83.18 37.42 83.88 39.19L83.83 39.14L83.78 39.09Q84.51 40.88 84.51 42.95L84.62 43.07L84.68 43.12Q84.62 44.46 84.14 45.75L84.04 45.65L84.02 45.63Q83.64 47.02 82.94 48.14L82.84 48.03L82.90 48.10Q82.31 49.32 81.44 50.22L81.38 50.16L81.33 50.11Q80.43 50.97 79.59 51.58L79.75 51.75L79.56 51.78L79.73 51.95Q80.76 52.47 81.88 53.34L81.97 53.44L81.90 53.37Q83.06 54.28 83.93 55.37L83.99 55.43L84.03 55.47Q84.85 56.51 85.38 57.91L85.40 57.93L85.27 57.80Q85.82 59.22 85.82 61.01L85.93 61.12L85.92 61.11Q85.86 63.06 85.02 64.80L85.02 64.80L85.06 64.85Q84.26 66.62 82.75 67.90L82.61 67.77L82.66 67.81Q81.25 69.21 79.12 69.94L79.02 69.84L79.14 69.95Q76.95 70.62 74.37 70.62L74.26 70.51L74.37 70.62Q71.76 70.53 69.61 69.80L69.59 69.79L69.58 69.77Q67.41 69.03 65.87 67.72L66.02 67.87L65.90 67.75Q64.49 66.56 63.59 64.77L63.45 64.63L63.60 64.77Q62.73 63.01 62.73 60.88Z"/><path fill="#f0d78e" d="M17.30 60.36L17.26 60.32L17.30 60.36Q17.31 61.88 17.90 63.11L17.82 63.03L17.81 63.03Q18.49 64.34 19.52 65.27L19.54 65.29L19.49 65.24Q20.60 66.24 22.00 66.74L22.02 66.75L21.91 66.65Q23.37 67.21 24.99 67.21L24.95 67.17L24.86 67.08Q28.13 67.21 30.06 65.47L30.02 65.43L29.96 65.38Q31.89 63.64 31.89 60.84L31.88 60.83L32.00 60.94Q31.92 59.13 31.14 57.90L31.15 57.92L31.25 58.01Q30.35 56.66 29.00 55.74L29.04 55.77L28.94 55.68Q27.74 54.89 25.97 54.13L26.02 54.18L25.85 54.01Q24.25 53.42 22.35 52.64L22.27 52.56L22.24 52.53Q20.16 54.03 18.73 55.96L18.62 55.85L18.71 55.94Q17.37 57.96 17.37 60.43ZM27.43 50.50L27.31 50.38L27.28 50.34Q29.06 48.71 30.04 46.92L30.06 46.94L30.17 47.05Q31.18 45.28 31.18 43.32L31.18 43.32L31.11 43.26Q31.17 40.63 29.54 38.81L29.57 38.83L29.47 38.73Q27.88 36.95 24.91 36.95L24.88 36.92L24.95 36.98Q22.36 36.92 20.74 38.49L20.70 38.44L20.69 38.44Q19.09 40.03 19.09 42.66L19.10 42.67L19.11 42.68Q19.17 44.36 19.84 45.51L19.80 45.47L19.76 45.43Q20.44 46.58 21.58 47.48L21.65 47.55L21.69 47.59Q22.68 48.32 24.16 49.02L24.23 49.09L24.23 49.09Q25.64 49.72 27.27 50.33ZM13.09 60.74L13.09 60.74L13.18 60.83Q13.11 59.02 13.70 57.54L13.79 57.64L13.80 57.64Q14.35 56.12 15.27 54.91L15.31 54.96L15.32 54.96Q16.08 53.59 17.28 52.67L17.30 52.68L17.38 52.77Q18.55 51.81 19.84 51.14L19.92 51.22L19.80 50.88L19.89 50.96Q17.92 49.56 16.41 47.57L16.42 47.57L16.44 47.60Q14.94 45.62 14.94 42.77L14.88 42.70L14.79 42.62Q14.93 40.68 15.71 39.00L15.56 38.85L15.60 38.89Q16.47 37.29 17.81 36.09L17.81 36.09L17.73 36.01Q19.12 34.85 20.97 34.18L21.01 34.22L20.95 34.16Q22.88 33.57 25.07 33.57L24.92 33.43L25.06 33.57Q27.40 33.56 29.25 34.26L29.13 34.14L29.13 34.13Q31.05 34.91 32.36 36.17L32.28 36.08L32.46 36.26Q33.68 37.43 34.38 39.19L34.31 39.12L34.42 39.23Q35.15 41.03 35.15 43.10L35.09 43.04L35.04 42.99Q35.11 44.46 34.64 45.75L34.62 45.73L34.59 45.70Q34.10 46.97 33.40 48.09L33.40 48.09L33.37 48.06Q32.68 49.20 31.81 50.09L31.77 50.05L31.84 50.12Q30.96 51.00 30.12 51.62L30.18 51.67L30.14 51.86L30.21 51.93Q31.26 52.48 32.38 53.34L32.46 53.43L32.53 53.49Q33.60 54.31 34.47 55.40L34.37 55.31L34.53 55.46Q35.22 56.38 35.75 57.78L35.85 57.88L35.80 57.83Q36.36 59.25 36.36 61.05L36.34 61.03L36.45 61.14Q36.35 63.06 35.51 64.80L35.61 64.89L35.59 64.87Q34.66 66.51 33.14 67.80L33.14 67.80L33.22 67.87Q31.57 69.02 29.44 69.75L29.63 69.95L29.55 69.86Q27.43 70.60 24.85 70.60L24.84 70.58L24.74 70.49Q22.29 70.56 20.14 69.83L20.12 69.81L20.13 69.83Q17.98 69.10 16.44 67.79L16.51 67.86L16.53 67.87Q14.83 66.40 13.93 64.61L14.07 64.75L14.07 64.75Q13.17 62.95 13.17 60.82Z"/><path fill="#88e6e6" d="M124.82 66.91L124.84 66.93L124.81 66.91Q126.17 66.92 127.29 66.36L127.38 66.45L127.32 66.39Q128.46 65.86 129.30 64.82L129.31 64.82L129.18 64.70Q130.12 63.77 130.60 62.34L130.66 62.40L130.52 62.26Q131.08 60.92 131.08 59.12L131.07 59.11L131.08 59.12Q131.08 55.60 129.46 53.58L129.34 53.46L129.38 53.51Q127.88 51.61 124.52 51.61L124.49 51.58L124.38 51.47Q122.69 51.46 120.70 52.55L120.82 52.67L120.71 52.56Q118.71 53.64 116.91 56.16L117.06 56.30L117.08 56.32Q117.43 61.49 119.42 64.20L119.52 64.31L119.53 64.31Q121.43 66.94 124.84 66.94ZM134.80 37.36L132.08 40.07L132.15 40.14Q130.98 38.81 129.44 38.05L129.62 38.23L129.61 38.22Q128.01 37.41 126.33 37.41L126.28 37.36L126.26 37.33Q124.47 37.39 122.79 38.18L122.70 38.08L122.83 38.22Q121.06 38.91 119.77 40.70L119.77 40.70L119.81 40.74Q118.48 42.49 117.69 45.37L117.76 45.43L117.81 45.49Q116.96 48.31 116.90 52.56L116.86 52.52L116.85 52.51Q118.57 50.48 120.81 49.28L120.79 49.25L120.73 49.19Q123.13 48.15 125.32 48.15L125.16 47.99L125.26 48.09Q129.81 47.99 132.58 50.74L132.56 50.72L132.62 50.77Q135.35 53.48 135.35 59.02L135.52 59.20L135.44 59.11Q135.49 61.74 134.65 63.84L134.67 63.86L134.66 63.85Q133.82 65.95 132.37 67.46L132.30 67.39L132.32 67.42Q130.81 68.87 128.90 69.71L128.88 69.69L128.98 69.79Q126.97 70.52 124.79 70.52L124.78 70.52L124.74 70.48Q122.27 70.64 120.03 69.58L119.90 69.45L119.89 69.43Q117.68 68.40 116.03 66.25L116.07 66.29L116.17 66.39Q114.36 64.08 113.41 60.86L113.46 60.91L113.56 61.00Q112.46 57.64 112.46 53.33L112.47 53.33L112.61 53.48Q112.62 48.11 113.74 44.33L113.62 44.21L113.67 44.26Q114.85 40.54 116.76 38.16L116.74 38.15L116.71 38.11Q118.54 35.66 120.97 34.57L121.07 34.66L121.07 34.66Q123.38 33.44 126.07 33.44L126.05 33.43L126.22 33.60Q129.13 33.59 131.23 34.68L131.16 34.62L131.20 34.66Q133.22 35.67 134.73 37.29L134.76 37.32Z"/><path fill="#afe679" d="M97.12 64.02L97.23 53.22L86.93 53.11L86.90 49.61L97.13 49.64L97.22 38.81L100.77 38.73L100.83 49.70L111.01 49.69L111.01 53.16L100.86 53.21L100.72 63.98L97.13 64.03Z"/><path fill="#8787e8" d="M136.51 47.20L136.41 43.63L160.42 43.61L160.59 47.25L136.42 47.11ZM136.58 59.19L136.57 55.71L160.52 55.63L160.57 59.16L136.43 59.04Z"/><path fill="#e7c663" d="M174.37 58.85L170.39 58.90L170.36 58.87Q170.06 56.73 170.54 54.96L170.40 54.82L170.49 54.91Q171.02 53.20 171.86 51.72L171.69 51.54L171.85 51.71Q172.55 50.08 173.64 48.79L173.70 48.86L173.73 48.89Q174.87 47.65 175.82 46.39L175.83 46.39L175.80 46.36Q176.73 45.08 177.38 43.80L177.38 43.80L177.40 43.82Q177.97 42.45 177.97 40.94L178.01 40.99L177.99 40.96Q177.98 38.71 176.61 37.12L176.56 37.07L176.66 37.17Q175.33 35.62 172.64 35.62L172.60 35.58L172.64 35.62Q170.65 35.47 169.00 36.34L169.02 36.36L169.08 36.42Q167.31 37.17 166.02 38.68L166.16 38.83L163.44 36.33L163.38 36.27Q165.28 34.36 167.57 33.04L167.62 33.08L167.54 33.01Q169.89 31.75 172.92 31.75L172.87 31.70L172.92 31.75Q177.21 31.68 179.82 34.06L179.90 34.14L179.84 34.07Q182.54 36.55 182.54 40.75L182.42 40.63L182.55 40.76Q182.53 42.59 181.86 44.11L181.71 43.95L181.85 44.09Q181.15 45.58 180.17 46.92L180.10 46.86L180.15 46.91Q179.18 48.26 178.09 49.58L178.02 49.50L178.13 49.62Q176.96 50.85 176.04 52.25L176.13 52.35L176.01 52.22Q175.22 53.76 174.71 55.36L174.52 55.17L174.57 55.21Q174.15 56.90 174.38 58.86L174.35 58.82ZM169.08 67.05L169.11 67.09L169.18 67.15Q169.21 65.56 170.16 64.58L170.08 64.50L170.12 64.54Q171.00 63.48 172.40 63.48L172.52 63.60L172.36 63.44Q173.77 63.46 174.75 64.44L174.80 64.49L174.82 64.50Q175.79 65.48 175.79 67.10L175.83 67.14L175.79 67.10Q175.71 68.53 174.73 69.51L174.88 69.66L174.88 69.66Q173.90 70.64 172.50 70.64L172.49 70.63L172.50 70.64Q171.02 70.56 170.07 69.58L170.01 69.52L169.99 69.50Q169.13 68.62 169.13 67.11Z"/><path d="M1 13 C98 69,84 47,186 10" stroke="#bedf5d" fill="none"/></svg>