<svg xmlns="http://www.w3.org/2000/svg" width="200" height="100" viewBox="0,0,200,100"><rect width="100%" height="100%" fill="#ffffff"/><path fill="#c15fe1" d="M111.20 65.45L113.54 62.42L113.61 62.48Q115.32 64.25 117.47 65.53L117.35 65.42L117.34 65.40Q119.68 66.87 122.87 66.87L122.80 66.80L122.83 66.83Q126.05 66.81 128.13 65.04L128.08 65.00L128.05 64.97Q130.17 63.25 130.17 60.22L130.06 60.12L130.13 60.19Q130.18 58.67 129.59 57.35L129.63 57.40L129.52 57.28Q128.89 55.93 127.55 54.98L127.60 55.03L127.59 55.01Q126.35 54.17 124.17 53.67L124.05 53.55L124.18 53.67Q121.94 53.11 118.74 53.11L118.80 53.17L118.75 49.59L118.70 49.55Q121.63 49.62 123.56 49.11L123.59 49.14L123.57 49.12Q125.40 48.52 126.61 47.62L126.66 47.68L126.72 47.73Q127.82 46.74 128.33 45.50L128.47 45.64L128.35 45.53Q128.86 44.30 128.86 42.90L128.84 42.88L128.79 42.83Q128.86 40.27 127.21 38.76L127.18 38.73L127.21 38.76Q125.55 37.24 122.69 37.24L122.64 37.19L122.75 37.29Q120.39 37.17 118.51 38.18L118.52 38.19L118.58 38.25Q116.63 39.19 115.01 40.81L115.16 40.96L112.65 38.00L112.69 38.04Q114.67 35.99 117.16 34.73L117.16 34.73L117.19 34.76Q119.65 33.46 122.84 33.46L122.79 33.42L122.89 33.51Q125.32 33.60 127.28 34.21L127.16 34.09L127.09 34.02Q129.23 34.81 130.66 35.96L130.57 35.87L130.56 35.86Q131.95 36.97 132.73 38.65L132.86 38.78L132.89 38.82Q133.48 40.30 133.48 42.48L133.51 42.51L133.57 42.57Q133.64 45.89 131.85 47.96L131.80 47.91L131.80 47.92Q130.02 50.00 127.11 51.12L127.10 51.11L127.06 51.30L127.06 51.29Q128.70 51.71 130.10 52.46L130.05 52.41L130.05 52.41Q131.60 53.31 132.66 54.46L132.61 54.41L132.61 54.41Q133.68 55.57 134.27 57.08L134.22 57.02L134.16 56.96Q134.82 58.55 134.82 60.40L134.81 60.39L134.81 60.39Q134.71 62.64 133.79 64.55L133.84 64.60L133.79 64.54Q133.04 66.62 131.44 67.94L131.38 67.88L131.31 67.81Q129.74 69.15 127.61 69.85L127.61 69.85L127.62 69.85Q125.61 70.67 123.14 70.67L123.15 70.68L123.14 70.67Q121.02 70.68 119.26 70.26L119.08 70.08L119.17 70.17Q117.35 69.70 115.90 69.00L115.88 68.98L115.89 68.99Q114.43 68.29 113.28 67.39L113.37 67.48L113.37 67.48Q112.24 66.60 111.34 65.59L111.20 65.45Z"/><path d="M5 10 C114 86,97 65,196 97" stroke="#d7b550" fill="none"/><path fill="#e56ae5" d="M16.63 56.33L27.86 56.36L27.88 46.02L27.82 45.96Q27.96 44.64 28.04 42.65L27.94 42.55L27.85 42.46Q28.02 40.56 28.13 39.10L28.07 39.04L27.96 39.15L28.00 39.20Q27.15 40.30 26.42 41.54L26.56 41.67L26.55 41.66Q25.73 42.80 24.95 44.09L24.96 44.10L16.71 56.41ZM37.13 56.39L37.05 60.01L32.27 60.10L32.20 69.88L27.93 69.98L27.87 60.06L11.86 60.12L11.84 57.08L27.05 34.16L32.30 34.25L32.29 56.42L37.00 56.26Z"/><path fill="#559be1" d="M62.49 69.83L62.60 67.19L62.58 67.17Q66.62 63.15 69.76 59.90L69.75 59.90L69.76 59.90Q72.89 56.65 75.02 53.88L75.02 53.88L74.96 53.82Q77.17 51.12 78.29 48.80L78.21 48.73L78.17 48.68Q79.46 46.53 79.46 44.35L79.35 44.23L79.46 44.35Q79.41 41.22 77.73 39.26L77.60 39.13L77.78 39.30Q76.08 37.33 72.66 37.33L72.56 37.22L72.55 37.22Q70.41 37.31 68.50 38.57L68.53 38.59L68.37 38.44Q66.50 39.73 64.93 41.52L64.95 41.54L62.42 39.01L62.31 38.90Q64.66 36.54 67.18 35.06L67.09 34.98L67.21 35.09Q69.59 33.46 73.11 33.46L73.11 33.46L73.15 33.50Q78.24 33.61 81.10 36.49L81.02 36.41L81.07 36.47Q83.86 39.29 83.86 44.05L83.87 44.05L83.92 44.10Q83.77 46.47 82.68 49.02L82.67 49.01L82.85 49.19Q81.62 51.61 79.69 54.32L79.77 54.40L79.83 54.46Q77.78 57.06 75.12 60.00L75.13 60.01L75.12 60.00Q72.48 62.96 69.29 66.26L69.28 66.25L69.28 66.25Q70.80 66.20 72.37 66.09L72.39 66.12L72.29 66.02Q73.84 65.88 75.24 65.88L75.22 65.87L85.62 65.91L85.62 69.88L62.58 69.91Z"/><path fill="#738fe2" d="M136.43 47.12L136.53 43.74L160.44 43.62L160.53 47.19L136.52 47.20ZM136.49 59.10L136.46 55.60L160.44 55.56L160.57 59.15L136.44 59.05Z"/><path fill="#3fe368" d="M43.09 57.65L43.16 54.19L55.98 54.12L55.95 57.62L43.09 57.65Z"/><path fill="#cce77d" d="M174.38 58.86L170.26 58.77L170.35 58.86Q169.94 56.60 170.41 54.83L170.51 54.93L170.50 54.92Q170.96 53.15 171.80 51.66L171.74 51.60L171.81 51.67Q172.69 50.22 173.78 48.93L173.68 48.84L173.68 48.83Q174.70 47.47 175.65 46.21L175.77 46.33L175.76 46.32Q176.74 45.09 177.38 43.80L177.28 43.70L177.42 43.83Q178.06 42.55 178.06 41.03L178.00 40.98L178.06 41.03Q177.95 38.68 176.58 37.09L176.66 37.17L176.66 37.17Q175.14 35.43 172.46 35.43L172.63 35.60L172.62 35.60Q170.63 35.45 168.97 36.32L169.07 36.41L169.03 36.37Q167.39 37.25 166.10 38.76L166.10 38.76L163.41 36.29L163.49 36.38Q165.34 34.42 167.64 33.10L167.53 32.99L167.60 33.07Q169.95 31.80 172.97 31.80L172.86 31.69L172.91 31.74Q177.16 31.62 179.76 34.00L179.89 34.12L179.85 34.09Q182.50 36.51 182.50 40.71L182.52 40.73L182.42 40.63Q182.50 42.56 181.83 44.07L181.72 43.96L181.71 43.96Q181.19 45.62 180.21 46.97L180.04 46.79L180.17 46.92Q179.26 48.33 178.16 49.65L178.09 49.58L178.16 49.64Q176.88 50.77 175.95 52.17L176.14 52.35L176.06 52.28Q175.04 53.58 174.54 55.18L174.67 55.31L174.58 55.22Q174.07 56.81 174.29 58.77L174.29 58.77ZM169.18 67.15L169.23 67.21L169.22 67.20Q169.10 65.45 170.05 64.47L170.05 64.47L170.16 64.58Q171.09 63.58 172.49 63.58L172.35 63.44L172.51 63.60Q173.81 63.50 174.79 64.48L174.74 64.43L174.83 64.52Q175.79 65.48 175.79 67.10L175.86 67.17L175.86 67.17Q175.73 68.56 174.75 69.54L174.85 69.63L174.85 69.63Q173.81 70.56 172.41 70.56L172.43 70.57L172.42 70.57Q171.09 70.63 170.14 69.65L170.14 69.66L170.16 69.67Q169.13 68.62 169.13 67.11Z"/><path fill="#75efef" d="M97.19 64.09L97.22 53.20L86.96 53.13L87.01 49.71L97.20 49.71L97.13 38.72L100.80 38.75L100.85 49.72L111.03 49.71L111.02 53.18L100.78 53.12L100.87 64.14L97.09 64.00Z"/></svg>