<svg xmlns="http://www.w3.org/2000/svg" width="200" height="100" viewBox="0,0,200,100"><rect width="100%" height="100%" fill="#336699"/><path fill="#eeee85" d="M166.05 58.78L162.10 58.86L162.07 58.83Q161.66 56.57 162.14 54.81L162.24 54.91L162.25 54.92Q162.71 53.14 163.55 51.66L163.59 51.70L163.46 51.57Q164.32 50.10 165.41 48.82L165.43 48.84L165.38 48.78Q166.48 47.50 167.43 46.24L167.40 46.22L167.57 46.39Q168.40 45.00 169.04 43.71L169.14 43.81L169.08 43.75Q169.64 42.37 169.64 40.86L169.67 40.89L169.66 40.88Q169.75 38.74 168.38 37.14L168.46 37.22L168.44 37.20Q166.91 35.45 164.22 35.45L164.28 35.50L164.24 35.47Q162.38 35.46 160.73 36.32L160.74 36.34L160.84 36.44Q159.09 37.20 157.80 38.71L157.92 38.83L155.17 36.31L155.18 36.32Q157.11 34.44 159.41 33.12L159.23 32.95L159.40 33.11Q161.53 31.63 164.55 31.63L164.70 31.78L164.71 31.79Q168.98 31.70 171.59 34.08L171.59 34.08L171.54 34.03Q174.19 36.46 174.19 40.66L174.24 40.70L174.29 40.76Q174.23 42.54 173.56 44.05L173.63 44.12L173.56 44.05Q172.93 45.61 171.95 46.95L171.86 46.86L171.79 46.79Q170.83 48.16 169.74 49.47L169.80 49.54L169.82 49.56Q168.67 50.81 167.74 52.21L167.89 52.36L167.79 52.26Q166.79 53.58 166.28 55.18L166.33 55.22L166.34 55.23Q165.94 56.93 166.17 58.89L166.00 58.73ZM160.79 67.01L160.89 67.12L160.84 67.06Q160.79 65.39 161.75 64.41L161.92 64.59L161.81 64.47Q162.80 63.54 164.20 63.54L164.29 63.62L164.26 63.59Q165.53 63.47 166.51 64.45L166.61 64.55L166.50 64.43Q167.54 65.48 167.54 67.10L167.63 67.19L167.61 67.17Q167.48 68.55 166.50 69.53L166.50 69.53L166.49 69.52Q165.63 70.62 164.23 70.62L164.24 70.63L164.25 70.65Q162.76 70.55 161.81 69.57L161.77 69.53L161.81 69.58Q160.97 68.71 160.97 67.19Z"/><path d="M12 75 C103 85,97 80,185 96" stroke="#b2ea7a" fill="none"/><path fill="#e1e183" d="M100.02 66.86L100.19 67.03L100.08 66.93Q101.37 66.87 102.49 66.31L102.49 66.32L102.65 66.47Q103.58 65.73 104.42 64.69L104.44 64.71L104.51 64.78Q105.27 63.66 105.74 62.23L105.85 62.34L105.84 62.33Q106.29 60.87 106.29 59.08L106.40 59.20L106.37 59.16Q106.32 55.58 104.70 53.57L104.63 53.51L104.78 53.65Q103.02 51.50 99.66 51.50L99.79 51.63L99.76 51.60Q98.12 51.64 96.13 52.73L95.98 52.58L96.09 52.69Q93.98 53.66 92.19 56.18L92.27 56.26L92.29 56.29Q92.64 61.44 94.62 64.16L94.76 64.30L94.75 64.28Q96.76 67.02 100.17 67.02ZM110.02 37.33L107.48 40.23L107.41 40.16Q106.22 38.79 104.68 38.04L104.73 38.09L104.85 38.21Q103.27 37.41 101.59 37.41L101.48 37.31L101.62 37.44Q99.68 37.35 98.00 38.13L98.00 38.14L98.09 38.22Q96.30 38.90 95.01 40.69L95.03 40.71L95.10 40.78Q93.79 42.55 93.01 45.43L93.01 45.43L93.07 45.49Q92.11 48.21 92.06 52.47L92.09 52.50L92.16 52.57Q93.82 50.48 96.06 49.27L95.99 49.21L96.15 49.37Q98.25 48.02 100.43 48.02L100.53 48.11L100.39 47.97Q105.21 48.15 107.99 50.89L107.81 50.72L107.94 50.85Q110.77 53.65 110.77 59.20L110.63 59.05L110.71 59.14Q110.62 61.62 109.78 63.72L109.92 63.86L109.88 63.82Q109.03 65.91 107.57 67.42L107.52 67.37L107.53 67.38Q106.04 68.86 104.14 69.70L104.15 69.71L104.22 69.78Q102.23 70.54 100.05 70.54L100.13 70.62L100.15 70.64Q97.43 70.55 95.19 69.49L95.27 69.56L95.26 69.55Q93.03 68.50 91.38 66.35L91.40 66.37L91.40 66.37Q89.61 64.08 88.66 60.86L88.70 60.90L88.65 60.84Q87.75 57.68 87.75 53.36L87.81 53.43L87.75 53.36Q87.76 48.00 88.88 44.22L88.81 44.15L88.88 44.22Q89.94 40.38 91.84 38.00L91.95 38.11L91.93 38.09Q93.81 35.68 96.25 34.59L96.17 34.52L96.23 34.57Q98.73 33.55 101.42 33.55L101.29 33.42L101.39 33.52Q104.34 33.55 106.44 34.65L106.34 34.55L106.41 34.62Q108.45 35.65 109.96 37.27L110.04 37.35Z"/><path fill="#d1b2ef" d="M64.20 64.11L64.28 53.26L53.90 53.07L54.04 49.74L64.20 49.71L64.15 38.74L67.88 38.83L67.74 49.61L78.05 49.73L78.03 53.19L67.90 53.25L67.73 64.00L64.18 64.09Z"/><path fill="#88b7e6" d="M23.42 69.82L23.42 66.02L31.63 66.05L31.76 39.85L25.12 39.72L25.27 36.89L25.26 36.88Q27.65 36.36 29.47 35.72L29.39 35.64L29.55 35.80Q31.35 35.13 32.80 34.23L32.69 34.12L36.28 34.18L36.27 66.09L43.62 66.05L43.64 69.88L23.59 69.99Z"/><path fill="#8383f0" d="M119.93 47.11L119.90 43.62L144.08 43.76L143.98 47.14L120.08 47.26ZM119.95 59.06L119.93 55.57L144.08 55.70L144.02 59.11L119.93 59.04Z"/></svg>