<svg xmlns="http://www.w3.org/2000/svg" width="200" height="100" viewBox="0,0,200,100"><rect width="100%" height="100%" fill="#ffffff"/><path d="M20 57 C86 21,101 9,185 89" stroke="#e263a3" fill="none"/><path d="M6 23 C100 29,98 56,188 74" stroke="#c148e9" fill="none"/><path d="M18 78 C102 29,81 5,196 29" stroke="#c56de3" fill="none"/><path fill="#7ae47a" d="M119.93 47.11L120.05 43.76L144.00 43.69L144.00 47.16L119.98 47.16ZM119.95 59.06L119.92 55.56L144.07 55.68L144.00 59.09L119.91 59.02Z"/><path d="M3 18 C89 53,83 19,181 27" stroke="#aae96b" fill="none"/><path fill="#5298df" d="M20.48 65.70L22.64 62.60L22.69 62.65Q24.23 64.25 26.39 65.48L26.35 65.44L26.49 65.58Q28.55 66.72 31.69 66.72L31.72 66.75L31.81 66.84Q33.36 66.77 34.79 66.18L34.89 66.28L34.78 66.17Q36.28 65.66 37.35 64.59L37.20 64.45L37.30 64.55Q38.30 63.42 38.92 61.91L39.01 62.00L39.05 62.04Q39.57 60.44 39.57 58.59L39.59 58.61L39.52 58.54Q39.57 54.89 37.50 52.82L37.60 52.92L37.60 52.92Q35.45 50.77 31.98 50.77L32.01 50.80L31.89 50.68Q30.02 50.66 28.70 51.22L28.79 51.31L28.80 51.31Q27.50 51.89 25.87 52.95L25.95 53.03L23.41 51.39L24.65 34.26L42.38 34.12L42.53 38.25L28.64 38.19L27.64 48.73L27.73 48.82Q28.84 47.97 30.13 47.58L30.22 47.66L30.18 47.63Q31.53 47.29 33.15 47.29L33.22 47.36L33.09 47.23Q35.38 47.23 37.40 47.90L37.39 47.89L37.39 47.90Q39.47 48.63 40.98 50.00L40.97 49.99L41.05 50.07Q42.42 51.30 43.29 53.40L43.27 53.38L43.46 53.57Q44.16 55.51 44.16 58.42L44.21 58.46L44.31 58.56Q44.32 61.49 43.31 63.73L43.21 63.63L43.27 63.69Q42.23 65.90 40.55 67.44L40.46 67.34L40.51 67.40Q38.88 68.99 36.73 69.80L36.71 69.78L36.60 69.67Q34.61 70.65 32.26 70.65L32.21 70.61L32.12 70.51Q30.06 70.58 28.29 70.16L28.24 70.10L28.28 70.14Q26.44 69.64 25.01 68.97L25.10 69.07L25.07 69.04Q23.74 68.46 22.59 67.59L22.59 67.59L22.44 67.44Q21.40 66.68 20.50 65.73L20.51 65.73Z"/><path fill="#5696d6" d="M100.15 66.99L100.11 66.96L100.14 66.98Q101.46 66.96 102.58 66.40L102.62 66.45L102.64 66.47Q103.68 65.82 104.52 64.79L104.57 64.84L104.61 64.88Q105.31 63.71 105.79 62.28L105.92 62.41L105.78 62.27Q106.26 60.84 106.26 59.05L106.26 59.05L106.21 59.00Q106.29 55.55 104.66 53.53L104.69 53.56L104.69 53.56Q103.07 51.55 99.71 51.55L99.63 51.47L99.73 51.57Q98.07 51.59 96.08 52.68L96.07 52.67L96.12 52.72Q94.08 53.76 92.29 56.28L92.24 56.23L92.19 56.19Q92.68 61.49 94.67 64.20L94.62 64.16L94.79 64.32Q96.64 66.90 100.05 66.90ZM109.95 37.26L107.40 40.14L107.41 40.15Q106.32 38.90 104.78 38.14L104.70 38.06L104.84 38.20Q103.21 37.35 101.53 37.35L101.50 37.32L101.46 37.28Q99.70 37.37 98.02 38.15L98.03 38.17L97.94 38.07Q96.41 39.01 95.13 40.81L95.13 40.81L95.11 40.79Q93.72 42.48 92.94 45.37L92.95 45.38L92.91 45.34Q92.16 48.25 92.10 52.51L92.13 52.54L92.11 52.51Q93.79 50.44 96.03 49.24L96.10 49.31L96.01 49.22Q98.28 48.04 100.46 48.04L100.40 47.98L100.42 48.00Q105.21 48.14 107.98 50.89L107.91 50.81L107.86 50.77Q110.61 53.49 110.61 59.04L110.61 59.04L110.75 59.18Q110.73 61.73 109.89 63.83L109.82 63.76L109.89 63.83Q109.07 65.95 107.62 67.47L107.55 67.40L107.55 67.40Q106.15 68.97 104.25 69.81L104.13 69.69L104.25 69.81Q102.27 70.57 100.09 70.57L100.00 70.49L100.02 70.51Q97.46 70.58 95.22 69.51L95.28 69.57L95.19 69.48Q92.94 68.41 91.29 66.26L91.39 66.36L91.33 66.29Q89.58 64.04 88.63 60.82L88.77 60.97L88.72 60.91Q87.79 57.72 87.79 53.41L87.84 53.45L87.83 53.45Q87.84 48.08 88.96 44.30L88.86 44.20L88.85 44.19Q90.00 40.44 91.91 38.06L91.84 37.99L91.90 38.05Q93.75 35.63 96.19 34.53L96.16 34.51L96.26 34.60Q98.67 33.49 101.36 33.49L101.41 33.54L101.46 33.59Q104.21 33.43 106.31 34.52L106.31 34.52L106.38 34.58Q108.45 35.65 109.96 37.27L109.97 37.28Z"/><path fill="#d75072" d="M64.26 64.17L64.17 53.15L54.08 53.25L54.03 49.73L64.27 49.78L64.28 38.87L67.75 38.70L67.88 49.75L78.08 49.76L78.10 53.25L67.73 53.07L67.78 64.05L64.19 64.10Z"/><path fill="#32e58c" d="M166.02 58.75L162.01 58.77L162.01 58.77Q161.75 56.66 162.22 54.89L162.29 54.96L162.22 54.89Q162.70 53.13 163.54 51.65L163.57 51.68L163.52 51.62Q164.36 50.15 165.45 48.86L165.41 48.82L165.53 48.93Q166.56 47.59 167.51 46.33L167.52 46.34L167.42 46.23Q168.38 44.98 169.03 43.70L169.09 43.76L169.16 43.83Q169.72 42.46 169.72 40.94L169.66 40.89L169.64 40.86Q169.80 38.78 168.43 37.19L168.41 37.17L168.27 37.03Q166.89 35.43 164.20 35.43L164.39 35.61L164.31 35.54Q162.41 35.48 160.75 36.35L160.74 36.33L160.72 36.31Q159.08 37.19 157.79 38.70L157.81 38.72L155.24 36.37L155.25 36.38Q156.97 34.29 159.26 32.98L159.33 33.05L159.41 33.13Q161.70 31.81 164.73 31.81L164.72 31.80L164.64 31.72Q169.00 31.71 171.60 34.09L171.54 34.02L171.53 34.02Q174.21 36.48 174.21 40.68L174.16 40.62L174.19 40.65Q174.14 42.45 173.47 43.96L173.47 43.97L173.44 43.94Q172.96 45.64 171.98 46.98L171.95 46.96L171.95 46.96Q170.82 48.15 169.73 49.47L169.86 49.59L169.72 49.45Q168.71 50.85 167.78 52.25L167.80 52.27L167.78 52.25Q166.91 53.70 166.40 55.30L166.46 55.35L166.37 55.27Q165.79 56.79 166.02 58.75L166.06 58.79ZM160.84 67.06L160.92 67.14L160.84 67.06Q160.84 65.44 161.79 64.46L161.91 64.58L161.81 64.48Q162.78 63.52 164.18 63.52L164.23 63.56L164.25 63.59Q165.63 63.57 166.61 64.55L166.62 64.56L166.49 64.43Q167.56 65.50 167.56 67.12L167.55 67.11L167.48 67.04Q167.55 68.62 166.57 69.60L166.52 69.55L166.52 69.55Q165.68 70.68 164.28 70.68L164.09 70.48L164.09 70.49Q162.88 70.67 161.93 69.69L161.85 69.62L161.79 69.55Q160.86 68.60 160.86 67.09Z"/></svg>