<svg xmlns="http://www.w3.org/2000/svg" width="200" height="100" viewBox="0,0,200,100"><rect width="100%" height="100%" fill="#ffffff"/><path d="M6 75 C107 63,93 34,194 34" stroke="#44e796" fill="none"/><path fill="#8a6aea" d="M25.57 60.38L25.47 60.28L25.52 60.33Q25.58 61.90 26.17 63.13L26.05 63.01L26.15 63.12Q26.75 64.36 27.78 65.28L27.69 65.18L27.73 65.23Q28.74 66.13 30.14 66.63L30.17 66.66L30.25 66.74Q31.59 67.18 33.21 67.18L33.27 67.24L33.29 67.26Q36.28 67.12 38.22 65.38L38.23 65.40L38.36 65.53Q40.26 63.76 40.26 60.96L40.19 60.89L40.16 60.85Q40.25 59.21 39.47 57.98L39.47 57.99L39.33 57.84Q38.62 56.68 37.28 55.76L37.36 55.84L37.33 55.81Q35.91 54.81 34.15 54.06L34.23 54.15L34.20 54.11Q32.34 53.26 30.44 52.48L30.52 52.56L30.50 52.54Q28.41 54.04 26.98 55.97L26.97 55.95L26.94 55.93Q25.43 57.77 25.43 60.24ZM35.64 50.45L35.54 50.36L35.53 50.35Q37.41 48.81 38.39 47.01L38.42 47.05L38.45 47.08Q39.29 45.15 39.29 43.19L39.27 43.17L39.32 43.21Q39.31 40.52 37.69 38.70L37.65 38.67L37.67 38.68Q36.13 36.95 33.16 36.95L33.21 36.99L33.17 36.95Q30.59 36.90 28.97 38.47L29.09 38.58L29.02 38.51Q27.47 40.16 27.47 42.79L27.32 42.64L27.39 42.71Q27.31 44.26 27.98 45.40L28.13 45.55L28.04 45.46Q28.65 46.55 29.80 47.44L29.90 47.55L29.84 47.48Q30.95 48.35 32.44 49.05L32.59 49.19L32.40 49.01Q33.94 49.76 35.56 50.38ZM21.38 60.78L21.43 60.83L21.48 60.88Q21.46 59.12 22.04 57.64L21.90 57.49L22.05 57.64Q22.61 56.13 23.53 54.92L23.46 54.85L23.39 54.78Q24.35 53.61 25.55 52.69L25.60 52.73L25.70 52.83Q26.73 51.74 28.02 51.07L28.06 51.11L28.06 50.88L28.00 50.83Q26.23 49.61 24.71 47.62L24.67 47.58L24.71 47.62Q23.10 45.53 23.10 42.67L23.03 42.60L23.11 42.69Q23.15 40.65 23.93 38.97L23.90 38.94L24.00 39.04Q24.69 37.27 26.04 36.06L26.03 36.05L26.04 36.07Q27.37 34.85 29.22 34.18L29.19 34.15L29.30 34.26Q30.99 33.43 33.18 33.43L33.21 33.47L33.29 33.55Q35.59 33.49 37.44 34.19L37.45 34.21L37.51 34.27Q39.23 34.84 40.55 36.10L40.55 36.10L40.63 36.18Q41.93 37.43 42.63 39.19L42.65 39.21L42.71 39.27Q43.29 40.92 43.29 42.99L43.40 43.10L43.30 42.99Q43.36 44.46 42.88 45.74L42.94 45.80L42.90 45.76Q42.30 46.92 41.60 48.04L41.71 48.15L41.67 48.11Q40.94 49.20 40.07 50.10L40.11 50.14L40.16 50.18Q39.16 50.95 38.32 51.57L38.32 51.57L38.33 51.80L38.40 51.87Q39.59 52.56 40.71 53.43L40.74 53.46L40.74 53.45Q41.78 54.25 42.65 55.34L42.64 55.33L42.64 55.33Q43.52 56.43 44.05 57.83L44.05 57.83L44.17 57.95Q44.61 59.26 44.61 61.05L44.58 61.02L44.59 61.03Q44.63 63.09 43.79 64.83L43.79 64.82L43.78 64.81Q42.96 66.57 41.45 67.86L41.45 67.85L41.36 67.76Q39.85 69.05 37.72 69.78L37.75 69.81L37.80 69.86Q35.67 70.59 33.09 70.59L33.02 70.51L33.03 70.53Q30.52 70.53 28.36 69.81L28.44 69.89L28.50 69.94Q26.28 69.15 24.74 67.83L24.66 67.76L24.78 67.88Q23.08 66.40 22.18 64.61L22.33 64.76L22.20 64.62Q21.35 62.87 21.35 60.75Z"/><path fill="#e23a8e" d="M59.58 57.63L59.51 54.04L72.53 54.18L72.55 57.73L59.49 57.55Z"/><path fill="#e4e47a" d="M100.16 67.01L100.04 66.88L100.00 66.85Q101.39 66.89 102.51 66.33L102.60 66.42L102.48 66.31Q103.77 65.91 104.61 64.88L104.54 64.80L104.50 64.77Q105.38 63.77 105.85 62.34L105.92 62.41L105.76 62.25Q106.25 60.83 106.25 59.04L106.34 59.13L106.35 59.14Q106.29 55.55 104.66 53.54L104.78 53.65L104.69 53.56Q103.04 51.52 99.68 51.52L99.68 51.52L99.65 51.49Q98.01 51.53 96.02 52.62L96.07 52.67L96.07 52.67Q94.12 53.80 92.33 56.32L92.27 56.26L92.27 56.26Q92.67 61.48 94.66 64.20L94.63 64.17L94.63 64.17Q96.67 66.94 100.09 66.94ZM109.96 37.27L107.33 40.08L107.53 40.27Q106.35 38.93 104.81 38.17L104.67 38.03L104.86 38.22Q103.23 37.37 101.55 37.37L101.46 37.29L101.49 37.31Q99.73 37.40 98.05 38.19L98.02 38.16L98.02 38.15Q96.41 39.01 95.12 40.80L94.98 40.66L95.07 40.75Q93.79 42.55 93.01 45.44L92.95 45.37L92.98 45.41Q92.11 48.20 92.05 52.46L92.11 52.52L92.09 52.50Q93.73 50.39 95.97 49.19L96.07 49.28L96.13 49.34Q98.20 47.97 100.38 47.97L100.52 48.10L100.45 48.03Q105.05 47.99 107.82 50.73L107.97 50.88L107.86 50.77Q110.75 53.63 110.75 59.18L110.62 59.05L110.66 59.08Q110.59 61.59 109.75 63.69L109.86 63.80L109.86 63.80Q108.93 65.81 107.48 67.32L107.48 67.33L107.50 67.35Q106.10 68.92 104.20 69.76L104.18 69.74L104.19 69.75Q102.30 70.60 100.11 70.60L100.04 70.53L100.08 70.57Q97.48 70.60 95.24 69.53L95.25 69.54L95.22 69.52Q92.98 68.45 91.33 66.30L91.42 66.38L91.39 66.36Q89.59 64.05 88.63 60.83L88.82 61.01L88.65 60.84Q87.71 57.63 87.71 53.32L87.69 53.31L87.83 53.45Q87.72 47.96 88.84 44.18L88.92 44.26L88.81 44.15Q89.94 40.38 91.85 38.00L91.89 38.04L91.90 38.06Q93.73 35.60 96.16 34.51L96.30 34.64L96.26 34.61Q98.73 33.54 101.42 33.54L101.45 33.58L101.35 33.48Q104.26 33.47 106.36 34.56L106.30 34.51L106.37 34.58Q108.57 35.77 110.08 37.40L109.96 37.27Z"/><path fill="#e1e164" d="M119.93 47.12L119.89 43.60L143.97 43.66L144.02 47.18L120.06 47.24ZM120.00 59.11L120.06 55.70L144.02 55.63L144.05 59.14L120.07 59.18Z"/><path fill="#de7777" d="M166.10 58.83L162.16 58.92L162.06 58.82Q161.64 56.55 162.12 54.79L162.14 54.81L162.12 54.79Q162.66 53.10 163.50 51.61L163.50 51.60L163.50 51.61Q164.33 50.12 165.43 48.83L165.39 48.80L165.35 48.75Q166.59 47.61 167.54 46.35L167.51 46.32L167.45 46.27Q168.44 45.04 169.08 43.75L169.10 43.77L169.17 43.84Q169.79 42.52 169.79 41.01L169.69 40.92L169.66 40.89Q169.71 38.69 168.34 37.10L168.38 37.14L168.35 37.11Q166.89 35.43 164.20 35.43L164.32 35.54L164.38 35.60Q162.42 35.50 160.77 36.36L160.78 36.37L160.83 36.43Q159.19 37.31 157.91 38.82L157.87 38.78L155.31 36.44L155.25 36.39Q157.04 34.37 159.34 33.05L159.36 33.08L159.30 33.02Q161.54 31.64 164.56 31.64L164.54 31.62L164.73 31.81Q169.06 31.78 171.67 34.16L171.63 34.12L171.63 34.12Q174.28 36.54 174.28 40.74L174.31 40.77L174.19 40.65Q174.14 42.45 173.47 43.96L173.49 43.99L173.55 44.04Q172.92 45.60 171.94 46.94L171.94 46.95L171.94 46.94Q170.81 48.14 169.72 49.46L169.86 49.59L169.85 49.59Q168.69 50.83 167.77 52.23L167.86 52.33L167.76 52.23Q166.81 53.61 166.31 55.20L166.47 55.36L166.41 55.30Q165.95 56.94 166.17 58.90L166.00 58.72ZM160.81 67.03L160.91 67.14L160.86 67.08Q160.80 65.40 161.75 64.42L161.90 64.57L161.92 64.59Q162.83 63.57 164.23 63.57L164.10 63.43L164.24 63.58Q165.58 63.52 166.56 64.50L166.60 64.54L166.63 64.57Q167.54 65.48 167.54 67.10L167.64 67.20L167.55 67.11Q167.57 68.64 166.59 69.62L166.54 69.57L166.54 69.57Q165.64 70.63 164.24 70.63L164.25 70.64L164.28 70.67Q162.78 70.57 161.83 69.59L161.89 69.66L161.92 69.69Q160.90 68.63 160.90 67.12Z"/></svg>