<svg xmlns="http://www.w3.org/2000/svg" width="200" height="100" viewBox="0,0,200,100"><rect width="100%" height="100%" fill="#336699"/><path fill="#b8d6f3" d="M59.64 57.70L59.58 54.11L72.51 54.16L72.45 57.62L59.60 57.65Z"/><path fill="#d8a2ea" d="M32.32 52.63L32.15 52.45L32.28 52.58Q34.01 52.58 36.00 51.49L35.92 51.41L35.92 51.41Q37.91 50.32 39.70 47.74L39.81 47.85L39.68 47.72Q39.27 42.49 37.25 39.80L37.29 39.85L37.28 39.83Q35.29 37.17 31.87 37.17L31.89 37.18L31.79 37.09Q30.58 37.16 29.43 37.72L29.40 37.69L29.49 37.78Q28.30 38.30 27.46 39.34L27.37 39.25L27.47 39.35Q26.49 40.24 26.02 41.70L26.13 41.81L26.09 41.78Q25.63 43.25 25.63 44.98L25.56 44.91L25.70 45.06Q25.66 48.54 27.28 50.55L27.30 50.57L27.28 50.55Q28.87 52.53 32.23 52.53ZM21.97 66.85L24.42 63.82L24.50 63.90Q25.64 65.21 27.18 66.00L27.14 65.96L27.19 66.00Q28.62 66.68 30.30 66.68L30.37 66.74L30.37 66.75Q32.36 66.83 34.04 66.04L34.05 66.05L33.92 65.92Q35.61 65.15 36.89 63.33L37.02 63.46L36.88 63.31Q38.23 61.56 39.02 58.65L38.93 58.56L38.98 58.62Q39.84 55.77 39.89 51.46L39.79 51.36L39.80 51.36Q38.19 53.57 35.95 54.80L35.84 54.69L35.92 54.76Q33.63 55.95 31.39 55.95L31.46 56.02L31.48 56.04Q26.90 56.11 24.16 53.36L23.98 53.19L23.98 53.19Q21.31 50.52 21.31 44.97L21.32 44.99L21.31 44.97Q21.29 42.38 22.13 40.28L22.20 40.35L22.19 40.34Q23.08 38.29 24.51 36.78L24.37 36.63L24.47 36.74Q25.94 35.27 27.87 34.43L27.89 34.44L27.74 34.29Q29.75 33.53 31.88 33.53L31.91 33.57L31.86 33.51Q34.55 33.57 36.81 34.63L36.81 34.63L36.85 34.67Q39.01 35.63 40.66 37.78L40.64 37.76L40.62 37.74Q42.38 40.01 43.31 43.23L43.29 43.21L43.24 43.16Q44.26 46.48 44.26 50.79L44.25 50.78L44.12 50.65Q44.20 56.10 43.08 59.88L43.02 59.82L43.04 59.84Q41.92 63.62 40.01 66.00L40.06 66.05L40.04 66.03Q38.05 68.33 35.62 69.42L35.69 69.49L35.72 69.52Q33.31 70.64 30.63 70.64L30.65 70.67L30.60 70.62Q27.72 70.59 25.56 69.53L25.47 69.43L25.48 69.44Q23.38 68.44 21.93 66.82L22.00 66.88Z"/><path d="M3 59 C117 56,101 18,193 87" stroke="#db42b4" fill="none"/><path fill="#e287cb" d="M90.81 56.26L102.17 56.42L102.07 45.96L102.15 46.03Q102.03 44.46 102.11 42.47L102.18 42.54L102.21 42.57Q102.23 40.52 102.34 39.06L102.44 39.16L102.10 39.05L102.08 39.03Q101.59 40.49 100.86 41.73L100.81 41.67L100.83 41.69Q100.01 42.83 99.22 44.12L99.20 44.09L90.83 56.28ZM111.40 56.41L111.30 60.00L106.40 59.98L106.52 69.96L102.03 69.83L102.06 60.01L86.06 60.08L85.94 56.93L101.27 34.13L106.56 34.26L106.49 56.37L111.29 56.30Z"/><path fill="#98eb98" d="M119.96 47.14L119.94 43.65L144.02 43.70L144.09 47.25L119.98 47.17ZM119.92 59.03L120.07 55.71L144.11 55.72L143.94 59.02L119.99 59.10Z"/><path fill="#eeb780" d="M166.13 58.86L162.15 58.91L162.02 58.78Q161.74 56.65 162.21 54.89L162.25 54.92L162.21 54.89Q162.77 53.20 163.61 51.71L163.54 51.65L163.50 51.61Q164.35 50.14 165.45 48.85L165.36 48.76L165.50 48.90Q166.48 47.51 167.43 46.25L167.47 46.28L167.53 46.34Q168.35 44.95 169.00 43.67L169.02 43.69L169.08 43.75Q169.66 42.40 169.66 40.89L169.77 41.00L169.69 40.92Q169.68 38.67 168.31 37.07L168.26 37.02L168.34 37.10Q166.99 35.53 164.30 35.53L164.29 35.52L164.28 35.50Q162.47 35.54 160.82 36.41L160.88 36.47L160.88 36.47Q159.06 37.17 157.77 38.68L157.86 38.77L155.17 36.31L155.16 36.30Q157.05 34.37 159.34 33.06L159.24 32.95L159.26 32.97Q161.61 31.71 164.63 31.71L164.73 31.81L164.67 31.75Q169.08 31.79 171.69 34.17L171.52 34.01L171.61 34.10Q174.25 36.52 174.25 40.72L174.31 40.77L174.12 40.58Q174.22 42.53 173.55 44.04L173.46 43.96L173.57 44.06Q172.80 45.48 171.82 46.83L171.81 46.82L171.86 46.86Q170.88 48.20 169.78 49.52L169.78 49.51L169.79 49.53Q168.63 50.78 167.71 52.18L167.72 52.18L167.75 52.22Q166.83 53.62 166.32 55.22L166.37 55.26L166.47 55.36Q165.79 56.78 166.01 58.74L166.13 58.85ZM160.87 67.09L160.96 67.19L160.87 67.09Q160.89 65.49 161.84 64.51L161.91 64.58L161.82 64.49Q162.75 63.49 164.15 63.49L164.21 63.54L164.10 63.43Q165.52 63.46 166.50 64.44L166.56 64.50L166.48 64.42Q167.58 65.51 167.58 67.14L167.58 67.14L167.60 67.16Q167.55 68.62 166.57 69.60L166.54 69.57L166.51 69.54Q165.61 70.60 164.21 70.60L164.28 70.67L164.21 70.60Q162.72 70.51 161.77 69.53L161.83 69.59L161.85 69.62Q160.87 68.61 160.87 67.10Z"/></svg>