<svg xmlns="http://www.w3.org/2000/svg" width="200" height="100" viewBox="0,0,200,100"><rect width="100%" height="100%" fill="#336699"/><path fill="#ef89a3" d="M64.12 64.02L64.23 53.22L53.99 53.17L54.01 49.72L64.17 49.68L64.12 38.72L67.89 38.85L67.75 49.63L77.96 49.64L77.98 53.13L67.82 53.16L67.76 64.03L64.09 63.99Z"/><path fill="#e56faa" d="M24.81 56.26L36.20 56.44L36.11 46.00L36.21 46.10Q36.17 44.60 36.26 42.62L36.25 42.61L36.18 42.54Q36.26 40.55 36.37 39.09L36.46 39.18L36.19 39.14L36.11 39.05Q35.46 40.36 34.73 41.59L34.80 41.66L34.83 41.69Q33.97 42.79 33.19 44.08L33.27 44.17L24.88 56.32ZM45.37 56.38L45.26 59.96L40.43 60.00L40.54 69.97L36.11 69.91L36.17 60.12L19.95 59.97L20.02 57.01L35.32 34.18L40.45 34.15L40.43 56.31L45.37 56.38Z"/><path d="M10 92 C102 42,84 50,192 31" stroke="#de9853" fill="none"/><path fill="#aa78dd" d="M98.25 52.55L98.21 52.51L98.16 52.46Q100.06 52.63 102.05 51.54L102.04 51.53L102.04 51.53Q104.01 50.42 105.80 47.84L105.66 47.70L105.76 47.80Q105.39 42.61 103.37 39.92L103.37 39.92L103.34 39.89Q101.27 37.15 97.86 37.15L97.85 37.15L97.92 37.21Q96.64 37.23 95.50 37.79L95.45 37.74L95.41 37.70Q94.18 38.18 93.34 39.22L93.49 39.36L93.35 39.23Q92.61 40.36 92.14 41.82L92.05 41.73L92.15 41.83Q91.64 43.26 91.64 44.99L91.62 44.97L91.64 44.99Q91.68 48.56 93.31 50.58L93.18 50.46L93.23 50.50Q94.87 52.53 98.23 52.53ZM88.04 66.93L90.55 63.95L90.58 63.98Q91.64 65.21 93.18 65.99L93.27 66.08L93.24 66.05Q94.71 66.76 96.39 66.76L96.47 66.85L96.46 66.83Q98.32 66.79 100.00 66.01L100.03 66.04L100.02 66.03Q101.57 65.11 102.86 63.29L103.01 63.44L103.03 63.47Q104.24 61.57 105.03 58.66L105.10 58.73L104.99 58.63Q105.79 55.73 105.85 51.42L105.93 51.50L105.90 51.47Q104.19 53.57 101.95 54.80L101.84 54.69L102.01 54.86Q99.70 56.02 97.46 56.02L97.39 55.95L97.50 56.06Q92.84 56.05 90.09 53.30L90.13 53.34L90.15 53.36Q87.42 50.63 87.42 45.08L87.39 45.06L87.34 45.00Q87.32 42.41 88.16 40.31L88.21 40.36L88.21 40.36Q89.00 38.21 90.43 36.70L90.34 36.61L90.41 36.68Q91.80 35.13 93.73 34.29L93.79 34.35L93.88 34.44Q95.64 33.43 97.77 33.43L97.83 33.49L97.83 33.49Q100.47 33.49 102.74 34.56L102.80 34.62L102.79 34.61Q105.07 35.68 106.72 37.84L106.63 37.75L106.60 37.72Q108.38 40.01 109.31 43.23L109.24 43.16L109.20 43.12Q110.11 46.32 110.11 50.63L110.07 50.60L110.09 50.62Q110.27 56.17 109.15 59.95L109.12 59.93L109.09 59.89Q107.96 63.66 106.06 66.04L105.99 65.98L106.12 66.11Q104.08 68.35 101.64 69.44L101.63 69.43L101.65 69.45Q99.19 70.52 96.50 70.52L96.61 70.63L96.60 70.62Q93.72 70.59 91.56 69.52L91.50 69.46L91.60 69.56Q89.44 68.49 87.98 66.87L88.01 66.90Z"/><path fill="#9ae183" d="M119.93 47.12L120.02 43.73L144.01 43.70L143.98 47.14L119.99 47.18ZM119.94 59.06L120.08 55.72L144.09 55.70L144.02 59.11L119.90 59.01Z"/><path fill="#b5f6c6" d="M166.12 58.85L162.04 58.80L162.01 58.77Q161.76 56.67 162.23 54.90L162.29 54.96L162.29 54.96Q162.70 53.13 163.54 51.65L163.52 51.62L163.42 51.53Q164.34 50.12 165.43 48.84L165.35 48.76L165.36 48.77Q166.50 47.52 167.45 46.26L167.57 46.38L167.48 46.29Q168.49 45.09 169.13 43.80L169.11 43.78L169.10 43.77Q169.82 42.55 169.82 41.04L169.64 40.87L169.67 40.90Q169.69 38.67 168.32 37.08L168.34 37.10L168.36 37.12Q166.93 35.47 164.25 35.47L164.29 35.51L164.36 35.59Q162.35 35.43 160.70 36.29L160.86 36.46L160.78 36.38Q159.20 37.32 157.92 38.83L157.80 38.71L155.25 36.39L155.31 36.44Q156.98 34.31 159.28 33.00L159.24 32.96L159.33 33.04Q161.67 31.77 164.69 31.77L164.71 31.79L164.69 31.77Q168.94 31.65 171.54 34.03L171.55 34.04L171.70 34.19Q174.27 36.53 174.27 40.73L174.17 40.64L174.23 40.70Q174.16 42.47 173.48 43.98L173.60 44.09L173.45 43.95Q172.83 45.51 171.85 46.86L171.98 46.98L171.90 46.91Q170.94 48.27 169.85 49.58L169.77 49.51L169.72 49.46Q168.73 50.87 167.80 52.27L167.72 52.19L167.77 52.24Q166.79 53.59 166.29 55.18L166.32 55.21L166.37 55.27Q165.96 56.96 166.19 58.92L166.15 58.87ZM160.88 67.10L160.82 67.04L160.96 67.18Q160.96 65.56 161.91 64.58L161.77 64.44L161.80 64.47Q162.88 63.62 164.28 63.62L164.14 63.47L164.13 63.47Q165.68 63.61 166.66 64.59L166.53 64.47L166.61 64.54Q167.46 65.39 167.46 67.02L167.65 67.21L167.61 67.17Q167.55 68.63 166.57 69.61L166.58 69.61L166.47 69.50Q165.60 70.59 164.20 70.59L164.20 70.59L164.21 70.60Q162.75 70.54 161.79 69.56L161.78 69.55L161.82 69.59Q160.90 68.64 160.90 67.12Z"/></svg>