<svg xmlns="http://www.w3.org/2000/svg" width="200" height="100" viewBox="0,0,200,100"><rect width="100%" height="100%" fill="#ffffff"/><path fill="#eed17b" d="M92.49 57.55L92.49 54.02L105.46 54.10L105.45 57.62L92.56 57.62Z"/><path d="M10 27 C104 25,81 49,195 75" stroke="#efba85" fill="none"/><path fill="#ec73ce" d="M16.71 56.40L27.84 56.33L27.76 45.90L27.79 45.93Q27.94 44.62 28.02 42.63L28.04 42.65L27.99 42.60Q28.02 40.56 28.13 39.10L28.21 39.18L27.86 39.06L27.90 39.10Q27.33 40.48 26.60 41.71L26.56 41.67L26.46 41.58Q25.73 42.80 24.94 44.09L24.97 44.11L16.62 56.32ZM37.19 56.45L37.04 59.99L32.23 60.06L32.31 69.99L27.90 69.95L27.77 59.97L11.74 60.00L11.73 56.97L27.17 34.27L32.13 34.08L32.27 56.40L37.18 56.43Z"/><path fill="#e3e35d" d="M43.06 57.62L43.00 54.03L55.93 54.08L55.97 57.65L43.17 57.73Z"/><path fill="#e0c779" d="M136.49 47.17L136.47 43.68L160.56 43.75L160.53 47.19L136.44 47.12ZM136.43 59.04L136.50 55.64L160.49 55.60L160.49 59.08L136.53 59.14Z"/><path fill="#95e47a" d="M115.56 56.26L126.89 56.39L126.81 45.95L126.84 45.98Q126.90 44.58 126.98 42.59L127.01 42.62L126.85 42.46Q126.96 40.50 127.07 39.04L127.09 39.06L126.93 39.12L126.89 39.09Q126.22 40.38 125.49 41.61L125.53 41.65L125.56 41.67Q124.78 42.85 123.99 44.14L123.97 44.11L115.66 56.36ZM136.02 56.27L136.20 60.15L131.20 60.02L131.18 69.86L126.76 69.81L126.87 60.06L110.82 60.09L110.76 57.00L126.08 34.19L131.29 34.24L131.26 56.39L136.03 56.29Z"/><path fill="#8aeb6a" d="M174.27 58.75L170.35 58.86L170.35 58.86Q170.05 56.71 170.53 54.95L170.38 54.80L170.38 54.80Q170.94 53.12 171.78 51.64L171.85 51.71L171.85 51.71Q172.51 50.05 173.61 48.76L173.72 48.87L173.76 48.92Q174.88 47.66 175.83 46.40L175.65 46.21L175.67 46.24Q176.72 45.07 177.36 43.78L177.34 43.76L177.40 43.81Q178.03 42.52 178.03 41.01L178.06 41.04L178.05 41.02Q178.05 38.79 176.68 37.19L176.57 37.08L176.60 37.11Q175.17 35.45 172.48 35.45L172.48 35.45L172.62 35.59Q170.63 35.45 168.98 36.32L169.04 36.38L169.12 36.47Q167.40 37.27 166.12 38.78L166.05 38.72L163.42 36.30L163.44 36.32Q165.19 34.26 167.48 32.95L167.65 33.12L167.61 33.08Q169.89 31.74 172.91 31.74L172.98 31.81L172.79 31.62Q177.22 31.68 179.83 34.06L179.93 34.16L179.82 34.05Q182.47 36.48 182.47 40.68L182.44 40.65L182.51 40.72Q182.49 42.55 181.82 44.07L181.75 43.99L181.79 44.04Q181.14 45.57 180.16 46.92L180.14 46.90L180.18 46.94Q179.12 48.20 178.03 49.51L178.00 49.49L178.12 49.61Q176.96 50.85 176.03 52.25L176.04 52.26L176.07 52.29Q175.07 53.61 174.57 55.21L174.70 55.34L174.71 55.36Q174.11 56.85 174.33 58.81L174.34 58.82ZM169.22 67.19L169.07 67.05L169.09 67.06Q169.22 65.57 170.17 64.59L170.17 64.58L170.16 64.58Q171.14 63.62 172.54 63.62L172.35 63.44L172.44 63.52Q173.79 63.48 174.77 64.46L174.74 64.43L174.91 64.60Q175.80 65.49 175.80 67.11L175.83 67.14L175.79 67.10Q175.75 68.57 174.77 69.55L174.84 69.62L174.85 69.63Q173.84 70.58 172.44 70.58L172.46 70.60L172.50 70.64Q171.12 70.66 170.17 69.68L170.18 69.69L170.02 69.53Q169.17 68.65 169.17 67.14Z"/><path fill="#74e6ad" d="M75.37 66.97L75.30 66.90L75.28 66.87Q76.67 66.92 77.79 66.36L77.76 66.34L77.89 66.47Q78.96 65.85 79.80 64.82L79.74 64.76L79.84 64.86Q80.55 63.69 81.03 62.27L81.09 62.32L81.06 62.30Q81.63 60.96 81.63 59.17L81.57 59.11L81.53 59.07Q81.55 55.56 79.92 53.55L79.94 53.56L79.93 53.56Q78.28 51.51 74.92 51.51L75.00 51.59L74.97 51.56Q73.33 51.60 71.34 52.69L71.28 52.63L71.25 52.60Q69.35 53.78 67.56 56.30L67.60 56.34L67.49 56.24Q68.00 61.56 69.99 64.28L69.88 64.16L69.94 64.23Q71.93 66.94 75.34 66.94ZM85.29 37.35L82.69 40.18L82.72 40.21Q81.49 38.82 79.95 38.06L79.92 38.03L80.06 38.17Q78.49 37.39 76.81 37.39L76.89 37.46L76.89 37.46Q74.87 37.29 73.19 38.07L73.34 38.23L73.30 38.19Q71.50 38.85 70.21 40.64L70.31 40.74L70.34 40.77Q69.10 42.61 68.32 45.49L68.21 45.39L68.18 45.35Q67.50 48.35 67.44 52.60L67.48 52.63L67.39 52.55Q69.08 50.48 71.32 49.28L71.22 49.19L71.35 49.32Q73.55 48.07 75.74 48.07L75.83 48.16L75.79 48.13Q80.41 48.10 83.18 50.84L83.08 50.74L83.25 50.91Q85.84 53.47 85.84 59.02L85.99 59.16L86.03 59.20Q86.01 61.76 85.17 63.86L84.99 63.68L84.99 63.68Q84.28 65.91 82.82 67.42L82.83 67.43L82.84 67.43Q81.37 68.93 79.46 69.77L79.38 69.69L79.38 69.69Q77.45 70.50 75.27 70.50L75.30 70.53L75.36 70.59Q72.74 70.61 70.50 69.55L70.37 69.42L70.52 69.57Q68.23 68.45 66.58 66.30L66.58 66.30L66.49 66.21Q65.00 64.22 64.05 61.00L63.89 60.83L63.97 60.92Q62.98 57.65 62.98 53.34L63.00 53.37L62.94 53.31Q62.97 47.96 64.09 44.18L64.10 44.19L64.15 44.24Q65.31 40.50 67.22 38.12L67.19 38.09L67.22 38.13Q69.06 35.68 71.49 34.59L71.41 34.50L71.52 34.62Q73.90 33.47 76.59 33.47L76.72 33.59L76.66 33.54Q79.61 33.58 81.71 34.67L81.66 34.61L81.61 34.57Q83.81 35.76 85.32 37.38L85.20 37.26Z"/></svg>