<svg xmlns="http://www.w3.org/2000/svg" width="200" height="100" viewBox="0,0,200,100"><rect width="100%" height="100%" fill="#ffffff"/><path fill="#38e0e0" d="M21.27 69.85L21.27 67.11L21.42 67.26Q25.38 63.15 28.51 59.91L28.40 59.79L28.53 59.92Q31.63 56.64 33.76 53.86L33.77 53.88L33.71 53.81Q35.91 51.12 37.03 48.80L36.98 48.74L36.97 48.74Q38.22 46.54 38.22 44.35L38.13 44.27L38.14 44.27Q38.10 41.15 36.42 39.19L36.43 39.21L36.44 39.22Q34.72 37.22 31.31 37.22L31.30 37.21L31.29 37.20Q29.15 37.31 27.25 38.57L27.18 38.50L27.19 38.51Q25.26 39.74 23.69 41.53L23.67 41.51L21.13 38.97L21.12 38.96Q23.31 36.44 25.83 34.96L25.94 35.07L25.78 34.92Q28.47 33.59 31.99 33.59L31.87 33.47L31.88 33.48Q36.94 33.55 39.79 36.44L39.73 36.37L39.79 36.44Q42.59 39.27 42.59 44.03L42.62 44.06L42.57 44.00Q42.53 46.48 41.44 49.03L41.57 49.16L41.47 49.06Q40.47 51.70 38.54 54.42L38.46 54.34L38.56 54.44Q36.52 57.05 33.86 59.99L33.91 60.03L33.84 59.97Q31.31 63.04 28.12 66.34L28.06 66.29L28.00 66.22Q29.44 66.10 31.01 65.99L31.04 66.02L31.16 66.13Q32.68 65.98 34.08 65.98L33.99 65.89L44.31 65.84L44.44 69.95L21.27 69.85Z"/><path fill="#ad6ced" d="M166.18 58.90L161.99 58.75L162.14 58.90Q161.73 56.65 162.21 54.88L162.26 54.93L162.27 54.94Q162.64 53.07 163.48 51.59L163.60 51.71L163.49 51.60Q164.41 50.19 165.50 48.90L165.54 48.94L165.36 48.77Q166.50 47.52 167.45 46.26L167.57 46.38L167.40 46.21Q168.35 44.95 168.99 43.66L169.13 43.80L169.06 43.73Q169.81 42.54 169.81 41.03L169.71 40.93L169.65 40.88Q169.83 38.82 168.46 37.22L168.36 37.12L168.36 37.12Q167.08 35.61 164.39 35.61L164.40 35.62L164.38 35.60Q162.46 35.53 160.81 36.40L160.85 36.44L160.73 36.33Q159.20 37.32 157.92 38.83L157.90 38.81L155.23 36.37L155.14 36.27Q157.02 34.34 159.31 33.03L159.32 33.04L159.22 32.93Q161.68 31.79 164.71 31.79L164.60 31.68L164.68 31.76Q169.09 31.80 171.69 34.18L171.56 34.05L171.61 34.10Q174.22 36.49 174.22 40.69L174.21 40.68L174.19 40.65Q174.25 42.56 173.58 44.07L173.58 44.07L173.60 44.10Q172.95 45.63 171.97 46.97L171.83 46.84L171.96 46.97Q170.83 48.16 169.74 49.48L169.75 49.48L169.80 49.54Q168.72 50.87 167.80 52.27L167.73 52.20L167.86 52.32Q166.89 53.68 166.39 55.28L166.42 55.31L166.29 55.18Q165.96 56.95 166.18 58.91L166.09 58.82ZM160.98 67.20L160.97 67.20L160.87 67.09Q160.89 65.49 161.84 64.51L161.86 64.53L161.86 64.53Q162.73 63.46 164.13 63.46L164.21 63.54L164.14 63.48Q165.50 63.44 166.48 64.42L166.49 64.43L166.62 64.56Q167.47 65.41 167.47 67.03L167.53 67.09L167.57 67.13Q167.62 68.69 166.64 69.67L166.60 69.64L166.59 69.62Q165.65 70.64 164.25 70.64L164.20 70.60L164.20 70.59Q162.78 70.57 161.83 69.59L161.90 69.67L161.80 69.56Q160.85 68.58 160.85 67.07Z"/><path fill="#77e353" d="M120.01 47.20L120.07 43.78L143.97 43.66L144.03 47.19L120.01 47.19ZM119.95 59.06L120.07 55.71L143.91 55.53L144.06 59.15L120.08 59.19Z"/><path d="M5 16 C95 37,106 33,197 97" stroke="#a363e2" fill="none"/><path fill="#e57a56" d="M100.15 67.00L100.13 66.98L100.15 66.99Q101.52 67.03 102.64 66.47L102.48 66.30L102.64 66.46Q103.66 65.81 104.50 64.77L104.58 64.84L104.50 64.76Q105.37 63.76 105.85 62.33L105.80 62.28L105.75 62.24Q106.21 60.80 106.21 59.00L106.37 59.17L106.29 59.09Q106.32 55.58 104.69 53.56L104.72 53.59L104.65 53.52Q102.97 51.45 99.61 51.45L99.69 51.53L99.71 51.55Q97.99 51.51 96.00 52.60L96.08 52.68L96.11 52.71Q94.00 53.68 92.21 56.20L92.26 56.25L92.33 56.32Q92.70 61.51 94.69 64.22L94.68 64.21L94.59 64.13Q96.70 66.97 100.12 66.97ZM110.09 37.40L107.52 40.26L107.52 40.26Q106.32 38.90 104.78 38.14L104.86 38.22L104.86 38.22Q103.15 37.30 101.47 37.30L101.64 37.46L101.59 37.41Q99.70 37.37 98.02 38.15L98.06 38.20L97.93 38.07Q96.43 39.03 95.15 40.83L94.99 40.67L95.05 40.73Q93.73 42.49 92.94 45.37L93.01 45.44L93.05 45.47Q92.12 48.21 92.06 52.47L92.21 52.62L92.07 52.48Q93.76 50.42 96.00 49.21L96.14 49.36L96.14 49.35Q98.25 48.02 100.44 48.02L100.49 48.07L100.57 48.15Q105.12 48.06 107.90 50.80L107.98 50.89L107.98 50.88Q110.63 53.51 110.63 59.06L110.59 59.02L110.71 59.13Q110.64 61.64 109.80 63.74L109.89 63.83L109.75 63.69Q108.97 65.85 107.52 67.36L107.47 67.32L107.52 67.37Q106.06 68.88 104.16 69.72L104.18 69.74L104.18 69.74Q102.23 70.53 100.04 70.53L100.00 70.49L100.14 70.63Q97.45 70.57 95.21 69.50L95.13 69.42L95.32 69.61Q93.01 68.48 91.36 66.33L91.27 66.24L91.37 66.33Q89.72 64.18 88.76 60.96L88.77 60.96L88.68 60.88Q87.86 57.79 87.86 53.47L87.80 53.41L87.69 53.30Q87.85 48.09 88.97 44.31L88.98 44.32L88.88 44.22Q90.04 40.48 91.95 38.10L91.99 38.15L91.85 38.01Q93.88 35.75 96.31 34.66L96.30 34.65L96.25 34.59Q98.78 33.60 101.47 33.60L101.37 33.50L101.45 33.57Q104.29 33.51 106.39 34.60L106.44 34.64L106.46 34.67Q108.45 35.65 109.96 37.28L110.08 37.39Z"/><path fill="#8dec6e" d="M64.20 64.10L64.12 53.11L53.93 53.10L54.04 49.74L64.12 49.63L64.22 38.81L67.86 38.81L67.72 49.60L78.05 49.73L78.10 53.25L67.86 53.20L67.81 64.08L64.14 64.05Z"/></svg>