<svg xmlns="http://www.w3.org/2000/svg" width="200" height="100" viewBox="0,0,200,100"><rect width="100%" height="100%" fill="#ffffff"/><path fill="#dc609e" d="M64.26 64.16L64.16 53.15L53.97 53.15L54.08 49.78L64.10 49.61L64.27 38.86L67.76 38.71L67.76 49.63L78.03 49.71L77.97 53.12L67.83 53.17L67.88 64.14L64.10 64.00Z"/><path d="M2 55 C81 95,97 72,192 20" stroke="#80e4b2" fill="none"/><path fill="#be5ede" d="M20.63 65.63L22.82 62.44L22.87 62.50Q24.59 64.27 26.75 65.56L26.61 65.42L26.71 65.52Q28.77 66.71 31.96 66.71L32.02 66.78L32.04 66.79Q35.23 66.73 37.30 64.97L37.30 64.96L37.30 64.97Q39.47 63.30 39.47 60.28L39.35 60.16L39.37 60.18Q39.33 58.57 38.75 57.26L38.85 57.37L38.78 57.29Q38.25 56.03 36.91 55.08L36.80 54.98L36.92 55.10Q35.59 54.16 33.41 53.65L33.38 53.63L33.35 53.60Q31.19 53.12 28.00 53.12L28.01 53.13L27.98 49.57L28.00 49.59Q30.92 49.65 32.85 49.15L32.69 48.99L32.84 49.14Q34.74 48.60 35.94 47.71L35.93 47.70L35.87 47.63Q37.12 46.79 37.63 45.55L37.52 45.45L37.70 45.63Q38.10 44.29 38.10 42.89L38.15 42.95L38.10 42.90Q38.15 40.31 36.50 38.80L36.49 38.79L36.44 38.74Q34.82 37.26 31.97 37.26L32.03 37.33L31.96 37.26Q29.73 37.27 27.86 38.28L27.76 38.18L27.90 38.32Q25.98 39.29 24.36 40.91L24.25 40.81L21.96 38.06L21.80 37.91Q23.92 36.00 26.42 34.74L26.38 34.70L26.44 34.76Q28.89 33.46 32.08 33.46L32.15 33.53L32.23 33.61Q34.47 33.49 36.43 34.11L36.47 34.15L36.46 34.14Q38.36 34.70 39.79 35.85L39.86 35.91L39.75 35.81Q41.32 37.09 42.10 38.77L42.10 38.78L42.09 38.76Q42.91 40.48 42.91 42.66L42.92 42.68L42.89 42.64Q42.78 45.78 40.99 47.85L40.98 47.85L40.96 47.82Q39.26 49.99 36.35 51.11L36.30 51.06L36.38 51.37L36.37 51.35Q37.99 51.74 39.39 52.50L39.45 52.56L39.36 52.46Q40.75 53.21 41.81 54.36L41.78 54.33L41.73 54.28Q42.88 55.51 43.47 57.03L43.46 57.02L43.50 57.06Q44.11 58.59 44.11 60.44L44.04 60.36L44.06 60.38Q44.09 62.77 43.16 64.67L43.13 64.64L43.17 64.68Q42.21 66.55 40.62 67.86L40.52 67.77L40.56 67.80Q38.95 69.11 36.82 69.81L36.92 69.91L36.89 69.88Q34.80 70.61 32.33 70.61L32.23 70.51L32.21 70.49Q30.21 70.62 28.45 70.20L28.47 70.22L28.50 70.25Q26.55 69.64 25.09 68.94L25.12 68.97L25.19 69.04Q23.72 68.33 22.57 67.43L22.60 67.46L22.53 67.39Q21.39 66.50 20.49 65.49L20.52 65.52Z"/><path fill="#e48080" d="M90.91 56.36L102.08 56.32L102.01 45.90L102.04 45.93Q102.13 44.56 102.21 42.57L102.25 42.61L102.15 42.51Q102.22 40.51 102.33 39.05L102.47 39.19L102.19 39.14L102.07 39.01Q101.56 40.47 100.83 41.70L100.69 41.55L100.82 41.68Q100.07 42.89 99.29 44.18L99.18 44.08L90.87 56.32ZM111.37 56.38L111.31 60.01L106.55 60.13L106.56 69.99L102.12 69.92L102.14 60.09L86.01 60.02L86.02 57.01L101.37 34.22L106.46 34.17L106.44 56.32L111.31 56.32Z"/><path fill="#da5296" d="M166.16 58.89L162.03 58.79L162.12 58.88Q161.65 56.56 162.13 54.80L162.22 54.89L162.22 54.89Q162.75 53.18 163.59 51.70L163.47 51.58L163.54 51.64Q164.44 50.22 165.53 48.93L165.47 48.87L165.38 48.78Q166.50 47.53 167.45 46.27L167.55 46.36L167.41 46.22Q168.35 44.95 169.00 43.66L169.02 43.69L169.08 43.75Q169.76 42.49 169.76 40.98L169.76 40.99L169.67 40.90Q169.75 38.74 168.38 37.14L168.40 37.16L168.27 37.03Q167.07 35.61 164.39 35.61L164.37 35.59L164.36 35.58Q162.51 35.58 160.86 36.45L160.86 36.46L160.78 36.37Q159.19 37.30 157.90 38.82L157.89 38.80L155.30 36.44L155.32 36.46Q157.01 34.33 159.30 33.02L159.32 33.04L159.30 33.02Q161.60 31.71 164.63 31.71L164.64 31.72L164.65 31.73Q168.98 31.69 171.58 34.07L171.65 34.13L171.51 34.00Q174.12 36.39 174.12 40.59L174.13 40.59L174.30 40.77Q174.27 42.58 173.60 44.09L173.58 44.08L173.57 44.06Q172.90 45.58 171.92 46.93L171.86 46.86L171.98 46.99Q170.87 48.20 169.78 49.51L169.79 49.53L169.77 49.51Q168.75 50.89 167.83 52.29L167.87 52.34L167.73 52.20Q166.88 53.67 166.37 55.26L166.36 55.25L166.45 55.35Q165.88 56.87 166.10 58.83L166.01 58.74ZM160.80 67.02L160.80 67.03L160.97 67.20Q160.86 65.46 161.81 64.48L161.88 64.55L161.84 64.51Q162.79 63.53 164.19 63.53L164.23 63.57L164.18 63.51Q165.66 63.59 166.64 64.57L166.62 64.56L166.60 64.54Q167.54 65.47 167.54 67.10L167.59 67.15L167.61 67.17Q167.51 68.58 166.53 69.56L166.67 69.70L166.66 69.69Q165.68 70.67 164.28 70.67L164.20 70.60L164.18 70.57Q162.81 70.61 161.86 69.63L161.88 69.64L161.78 69.54Q160.97 68.70 160.97 67.19Z"/><path fill="#5e9ede" d="M119.94 47.12L119.91 43.62L143.98 43.67L143.92 47.08L119.97 47.15ZM119.97 59.08L119.91 55.55L144.00 55.62L144.07 59.15L119.94 59.05Z"/></svg>