<svg xmlns="http://www.w3.org/2000/svg" width="200" height="100" viewBox="0,0,200,100"><rect width="100%" height="100%" fill="#ffffff"/><path fill="#4c9bea" d="M20.53 65.53L22.94 62.56L22.83 62.46Q24.57 64.25 26.72 65.54L26.77 65.58L26.59 65.40Q28.80 66.74 31.99 66.74L31.95 66.70L32.00 66.76Q35.28 66.78 37.35 65.02L37.41 65.08L37.26 64.93Q39.47 63.30 39.47 60.28L39.40 60.20L39.44 60.24Q39.48 58.72 38.89 57.40L38.84 57.35L38.74 57.25Q38.31 56.09 36.96 55.14L36.87 55.05L36.90 55.08Q35.55 54.12 33.37 53.61L33.42 53.67L33.27 53.52Q31.12 53.05 27.93 53.05L28.03 53.15L28.01 49.61L27.89 49.48Q30.81 49.55 32.74 49.04L32.75 49.05L32.76 49.06Q34.76 48.63 35.97 47.73L35.85 47.62L35.89 47.65Q37.05 46.71 37.55 45.48L37.61 45.53L37.62 45.55Q38.15 44.34 38.15 42.94L38.08 42.87L38.17 42.97Q38.05 40.21 36.40 38.70L36.55 38.85L36.40 38.70Q34.76 37.20 31.91 37.20L31.95 37.25L32.01 37.31Q29.72 37.25 27.84 38.26L27.82 38.24L27.79 38.21Q25.96 39.26 24.33 40.89L24.40 40.95L21.89 38.00L21.81 37.92Q23.98 36.05 26.47 34.79L26.44 34.76L26.42 34.74Q29.03 33.60 32.22 33.60L32.05 33.42L32.11 33.49Q34.42 33.44 36.38 34.06L36.54 34.22L36.51 34.19Q38.40 34.74 39.83 35.88L39.76 35.82L39.77 35.83Q41.34 37.12 42.13 38.80L42.08 38.75L42.02 38.69Q42.81 40.38 42.81 42.56L42.90 42.66L42.75 42.50Q42.86 45.86 41.07 47.94L41.01 47.87L40.94 47.81Q39.23 49.96 36.32 51.08L36.41 51.17L36.35 51.33L36.27 51.25Q37.92 51.67 39.32 52.43L39.34 52.44L39.45 52.56Q40.82 53.29 41.89 54.43L41.72 54.27L41.89 54.44Q42.86 55.49 43.44 57.00L43.46 57.02L43.56 57.12Q43.97 58.45 43.97 60.30L44.00 60.32L43.99 60.32Q44.15 62.83 43.23 64.74L43.15 64.66L43.23 64.73Q42.13 66.46 40.53 67.78L40.71 67.95L40.53 67.77Q39.06 69.22 36.93 69.92L36.94 69.92L36.90 69.88Q34.75 70.56 32.28 70.56L32.39 70.67L32.35 70.63Q30.15 70.56 28.39 70.14L28.39 70.14L28.45 70.20Q26.70 69.80 25.25 69.10L25.15 69.00L25.13 68.98Q23.83 68.44 22.68 67.54L22.55 67.41L22.51 67.37Q21.37 66.48 20.47 65.47L20.46 65.46Z"/><path fill="#6fe06f" d="M86.62 65.62L88.94 62.56L88.84 62.46Q90.55 64.23 92.71 65.52L92.65 65.47L92.65 65.46Q94.85 66.79 98.04 66.79L98.12 66.87L97.96 66.71Q101.19 66.69 103.26 64.93L103.31 64.98L103.37 65.03Q105.39 63.22 105.39 60.20L105.37 60.17L105.51 60.32Q105.33 58.57 104.74 57.25L104.74 57.25L104.79 57.30Q104.18 55.96 102.83 55.01L102.87 55.05L102.91 55.09Q101.55 54.12 99.37 53.62L99.28 53.53L99.39 53.64Q97.10 53.03 93.91 53.03L93.97 53.09L93.92 49.51L94.01 49.60Q96.83 49.56 98.76 49.06L98.73 49.03L98.70 49.00Q100.69 48.55 101.89 47.66L101.89 47.65L101.87 47.63Q103.08 46.74 103.58 45.51L103.63 45.56L103.63 45.56Q104.07 44.26 104.07 42.86L104.04 42.83L104.14 42.93Q104.21 40.37 102.55 38.85L102.46 38.76L102.40 38.70Q100.82 37.26 97.97 37.26L97.92 37.22L97.99 37.29Q95.72 37.25 93.84 38.26L93.76 38.18L93.89 38.31Q91.90 39.20 90.28 40.83L90.35 40.90L87.85 37.95L87.83 37.93Q89.96 36.03 92.45 34.77L92.35 34.67L92.40 34.72Q95.04 33.60 98.23 33.60L98.09 33.46L98.06 33.43Q100.43 33.45 102.39 34.07L102.39 34.07L102.38 34.06Q104.42 34.75 105.84 35.90L105.88 35.93L105.82 35.87Q107.21 36.99 108.00 38.67L108.04 38.71L107.99 38.67Q108.85 40.42 108.85 42.61L108.75 42.50L108.80 42.55Q108.80 45.80 107.01 47.87L107.04 47.90L107.04 47.90Q105.19 49.92 102.28 51.04L102.25 51.01L102.32 51.30L102.24 51.22Q104.04 51.79 105.44 52.54L105.35 52.46L105.28 52.39Q106.81 53.28 107.88 54.42L107.73 54.28L107.78 54.33Q108.98 55.61 109.57 57.13L109.55 57.11L109.55 57.11Q110.13 58.61 110.13 60.46L110.15 60.48L110.12 60.45Q110.15 62.83 109.23 64.73L109.23 64.74L109.09 64.60Q108.20 66.54 106.61 67.86L106.67 67.92L106.52 67.77Q105.09 69.25 102.96 69.95L102.85 69.84L102.97 69.95Q100.82 70.63 98.35 70.63L98.32 70.60L98.39 70.67Q96.13 70.54 94.37 70.12L94.38 70.13L94.36 70.11Q92.64 69.73 91.18 69.03L91.14 68.99L91.09 68.94Q89.82 68.43 88.68 67.54L88.57 67.43L88.67 67.53Q87.53 66.64 86.63 65.63L86.57 65.57Z"/><path d="M8 55 C95 6,118 45,197 63" stroke="#e3e33f" fill="none"/><path fill="#9859d8" d="M59.62 57.68L59.52 54.05L72.50 54.14L72.49 57.66L59.67 57.73Z"/><path fill="#db466c" d="M119.90 47.08L119.91 43.62L144.11 43.80L144.00 47.16L120.02 47.20ZM120.01 59.12L119.92 55.56L143.96 55.58L143.95 59.04L119.97 59.08Z"/><path fill="#913ae7" d="M166.18 58.91L162.02 58.78L161.98 58.74Q161.65 56.56 162.12 54.79L162.12 54.79L162.19 54.86Q162.71 53.14 163.55 51.66L163.61 51.72L163.46 51.57Q164.28 50.07 165.38 48.78L165.42 48.82L165.50 48.91Q166.48 47.51 167.44 46.25L167.40 46.21L167.53 46.34Q168.34 44.94 168.99 43.66L169.11 43.78L169.11 43.78Q169.70 42.44 169.70 40.93L169.68 40.90L169.69 40.91Q169.67 38.65 168.29 37.05L168.31 37.07L168.38 37.14Q167.04 35.58 164.35 35.58L164.25 35.47L164.27 35.49Q162.49 35.56 160.84 36.43L160.79 36.39L160.89 36.48Q159.06 37.17 157.77 38.68L157.92 38.84L155.26 36.40L155.29 36.42Q157.11 34.44 159.41 33.13L159.29 33.01L159.34 33.05Q161.57 31.67 164.59 31.67L164.66 31.74L164.66 31.74Q168.96 31.67 171.56 34.05L171.65 34.14L171.52 34.00Q174.18 36.44 174.18 40.64L174.17 40.63L174.19 40.65Q174.17 42.48 173.49 43.99L173.59 44.08L173.49 43.99Q172.79 45.47 171.81 46.82L171.82 46.82L171.80 46.81Q170.92 48.25 169.83 49.57L169.76 49.49L169.79 49.53Q168.82 50.97 167.90 52.37L167.79 52.25L167.89 52.35Q166.89 53.68 166.38 55.28L166.35 55.24L166.39 55.29Q165.84 56.83 166.06 58.79L166.19 58.91ZM160.94 67.16L160.86 67.08L160.98 67.20Q160.98 65.58 161.93 64.60L161.77 64.44L161.92 64.59Q162.72 63.45 164.12 63.45L164.23 63.57L164.24 63.58Q165.54 63.48 166.52 64.46L166.51 64.45L166.52 64.46Q167.49 65.43 167.49 67.05L167.64 67.20L167.55 67.11Q167.58 68.65 166.60 69.63L166.60 69.63L166.56 69.59Q165.54 70.53 164.14 70.53L164.22 70.61L164.20 70.59Q162.72 70.51 161.77 69.53L161.83 69.59L161.78 69.55Q160.93 68.67 160.93 67.15Z"/></svg>