<svg xmlns="http://www.w3.org/2000/svg" width="200" height="100" viewBox="0,0,200,100"><rect width="100%" height="100%" fill="#ffffff"/><path fill="#debe5e" d="M84.10 52.55L84.17 52.62L84.03 52.48Q85.82 52.53 87.81 51.44L87.92 51.55L87.92 51.55Q89.76 50.31 91.55 47.73L91.55 47.73L91.63 47.81Q91.20 42.57 89.19 39.88L89.20 39.90L89.14 39.84Q87.15 37.17 83.73 37.17L83.62 37.06L83.75 37.18Q82.34 37.07 81.19 37.63L81.31 37.75L81.34 37.78Q80.06 38.20 79.22 39.24L79.31 39.33L79.22 39.24Q78.37 40.27 77.90 41.72L77.90 41.72L77.97 41.80Q77.52 43.28 77.52 45.01L77.45 44.94L77.53 45.03Q77.56 48.58 79.18 50.59L79.11 50.53L79.11 50.53Q80.83 52.63 84.19 52.63ZM73.75 66.78L76.37 63.91L76.47 64.01Q77.54 65.25 79.08 66.04L79.02 65.98L79.01 65.96Q80.58 66.77 82.26 66.77L82.24 66.76L82.35 66.87Q84.07 66.69 85.75 65.90L85.77 65.92L85.87 66.02Q87.60 65.29 88.89 63.47L88.90 63.48L88.79 63.37Q90.05 61.52 90.83 58.61L90.87 58.64L90.83 58.61Q91.65 55.73 91.71 51.42L91.77 51.48L91.63 51.34Q90.05 53.57 87.81 54.81L87.85 54.84L87.75 54.74Q85.52 55.99 83.28 55.99L83.42 56.12L83.26 55.96Q78.71 56.06 75.96 53.31L75.94 53.29L75.91 53.26Q73.12 50.47 73.12 44.93L73.21 45.02L73.10 44.91Q73.12 42.35 73.96 40.25L74.02 40.31L74.10 40.39Q74.91 38.26 76.34 36.75L76.25 36.66L76.21 36.62Q77.65 35.12 79.58 34.28L79.75 34.45L79.66 34.36Q81.51 33.44 83.64 33.44L83.76 33.56L83.72 33.52Q86.29 33.46 88.56 34.53L88.51 34.48L88.71 34.67Q90.84 35.60 92.49 37.75L92.54 37.80L92.48 37.74Q94.09 39.85 95.01 43.07L95.15 43.21L95.19 43.25Q95.98 46.34 95.98 50.65L95.98 50.65L96.03 50.70Q96.07 56.11 94.95 59.89L94.84 59.78L94.89 59.83Q93.71 63.56 91.81 65.94L91.82 65.95L91.95 66.08Q89.95 68.36 87.51 69.45L87.51 69.45L87.61 69.55Q85.08 70.55 82.39 70.55L82.42 70.58L82.34 70.50Q79.65 70.67 77.50 69.60L77.39 69.50L77.33 69.44Q75.23 68.43 73.77 66.80L73.81 66.84Z"/><path fill="#f0f08d" d="M29.31 58.76L25.38 58.85L25.25 58.72Q25.00 56.63 25.48 54.87L25.54 54.92L25.58 54.97Q25.91 53.06 26.75 51.57L26.82 51.64L26.77 51.60Q27.67 50.17 28.76 48.88L28.72 48.84L28.67 48.78Q29.82 47.56 30.77 46.30L30.71 46.24L30.73 46.25Q31.80 45.12 32.45 43.83L32.37 43.76L32.28 43.66Q32.98 42.43 32.98 40.92L32.97 40.91L33.00 40.94Q33.12 38.82 31.75 37.22L31.71 37.18L31.67 37.15Q30.29 35.54 27.60 35.54L27.59 35.53L27.50 35.44Q25.70 35.49 24.05 36.35L24.09 36.39L24.13 36.44Q22.46 37.28 21.17 38.79L21.11 38.74L18.54 36.39L18.53 36.38Q20.29 34.33 22.58 33.01L22.64 33.07L22.59 33.02Q24.88 31.70 27.91 31.70L27.91 31.70L27.94 31.73Q32.20 31.63 34.81 34.01L34.98 34.18L34.82 34.02Q37.44 36.41 37.44 40.61L37.54 40.72L37.53 40.71Q37.56 42.59 36.89 44.10L36.90 44.11L36.93 44.14Q36.18 45.58 35.20 46.92L35.23 46.94L35.08 46.80Q34.12 48.17 33.03 49.48L33.15 49.60L33.01 49.46Q32.04 50.90 31.11 52.30L31.01 52.19L31.07 52.25Q30.12 53.63 29.62 55.22L29.73 55.34L29.66 55.27Q29.23 56.94 29.45 58.90L29.33 58.77ZM24.19 67.12L24.24 67.18L24.07 67.01Q24.18 65.49 25.13 64.51L25.05 64.43L25.03 64.41Q26.17 63.62 27.57 63.62L27.41 63.46L27.44 63.49Q28.94 63.59 29.92 64.57L29.88 64.53L29.92 64.57Q30.85 65.50 30.85 67.13L30.75 67.03L30.83 67.10Q30.75 68.53 29.77 69.51L29.80 69.55L29.93 69.67Q28.82 70.53 27.42 70.53L27.47 70.57L27.52 70.63Q26.03 70.53 25.07 69.55L25.08 69.56L25.06 69.54Q24.23 68.68 24.23 67.17Z"/><path d="M17 47 C113 5,103 92,188 75" stroke="#e1b588" fill="none"/><path fill="#a8e868" d="M101.17 47.21L101.13 43.70L125.25 43.79L125.23 47.25L101.20 47.24ZM101.20 59.17L101.11 55.60L125.21 55.68L125.11 59.06L101.14 59.11Z"/><path fill="#db56db" d="M50.11 57.60L50.24 54.20L62.98 54.06L63.00 57.61L50.17 57.65Z"/><path fill="#39deb5" d="M135.02 57.65L135.08 54.18L147.98 54.20L147.81 57.56L134.94 57.57Z"/><path fill="#df7690" d="M158.02 69.89L157.99 67.12L158.11 67.23Q162.02 63.08 165.15 59.83L165.28 59.96L165.18 59.86Q168.33 56.62 170.45 53.85L170.46 53.86L170.49 53.89Q172.58 51.08 173.70 48.75L173.67 48.72L173.69 48.74Q174.84 46.45 174.84 44.26L174.91 44.34L174.79 44.21Q174.83 41.17 173.15 39.21L173.15 39.21L173.19 39.25Q171.39 37.17 167.97 37.17L168.02 37.22L167.99 37.18Q165.88 37.32 163.98 38.58L163.99 38.59L163.87 38.47Q162.02 39.79 160.45 41.58L160.42 41.55L157.90 39.03L157.79 38.91Q159.98 36.41 162.50 34.92L162.61 35.03L162.60 35.02Q165.14 33.55 168.67 33.55L168.60 33.48L168.61 33.50Q173.56 33.46 176.41 36.34L176.43 36.36L176.41 36.34Q179.25 39.20 179.25 43.96L179.32 44.03L179.29 44.01Q179.30 46.54 178.21 49.08L178.20 49.08L178.21 49.09Q177.08 51.60 175.15 54.31L175.23 54.40L175.16 54.33Q173.18 56.99 170.52 59.93L170.53 59.94L170.60 60.01Q167.89 62.91 164.70 66.21L164.84 66.35L164.72 66.23Q166.26 66.21 167.83 66.09L167.77 66.04L167.80 66.06Q169.27 65.85 170.67 65.85L170.76 65.95L181.02 65.84L181.19 69.99L158.03 69.90Z"/></svg>