<svg xmlns="http://www.w3.org/2000/svg" width="200" height="100" viewBox="0,0,200,100"><rect width="100%" height="100%" fill="#ffffff"/><path fill="#bcec8c" d="M34.19 58.91L30.13 58.89L30.08 58.84Q29.72 56.63 30.19 54.87L30.19 54.86L30.10 54.77Q30.68 53.11 31.52 51.63L31.46 51.57L31.60 51.70Q32.42 50.20 33.51 48.91L33.43 48.83L33.45 48.85Q34.52 47.55 35.48 46.29L35.47 46.28L35.53 46.34Q36.39 44.99 37.03 43.70L37.17 43.84L37.05 43.72Q37.82 42.56 37.82 41.05L37.64 40.87L37.77 40.99Q37.74 38.73 36.37 37.13L36.28 37.04L36.39 37.15Q35.06 35.59 32.37 35.59L32.28 35.51L32.31 35.54Q30.38 35.45 28.73 36.32L28.81 36.40L28.72 36.31Q27.11 37.22 25.82 38.73L25.76 38.67L23.19 36.32L23.25 36.39Q25.03 34.36 27.33 33.04L27.41 33.13L27.26 32.97Q29.57 31.68 32.60 31.68L32.60 31.68L32.56 31.64Q37.03 31.74 39.64 34.12L39.54 34.02L39.71 34.19Q42.21 36.47 42.21 40.67L42.19 40.65L42.19 40.65Q42.21 42.52 41.53 44.03L41.60 44.09L41.50 43.99Q40.80 45.48 39.82 46.82L39.79 46.79L39.84 46.85Q38.98 48.31 37.89 49.62L37.81 49.54L37.83 49.57Q36.70 50.84 35.78 52.24L35.77 52.23L35.87 52.34Q34.96 53.75 34.45 55.35L34.45 55.35L34.33 55.22Q33.81 56.80 34.03 58.76L34.09 58.82ZM28.82 67.04L28.82 67.04L28.97 67.19Q28.80 65.40 29.76 64.42L29.85 64.51L29.79 64.46Q30.72 63.45 32.12 63.45L32.28 63.61L32.18 63.52Q33.62 63.55 34.60 64.53L34.62 64.55L34.67 64.60Q35.60 65.54 35.60 67.16L35.51 67.07L35.54 67.10Q35.46 68.53 34.48 69.51L34.53 69.57L34.59 69.62Q33.52 70.51 32.12 70.51L32.26 70.65L32.14 70.53Q30.72 70.51 29.77 69.53L29.84 69.60L29.79 69.56Q28.89 68.63 28.89 67.12Z"/><path fill="#d6914c" d="M59.50 57.55L59.59 54.12L72.49 54.13L72.48 57.66L59.59 57.64Z"/><path fill="#95e8d3" d="M120.01 47.19L119.93 43.64L144.05 43.74L144.07 47.23L120.04 47.22ZM119.91 59.03L119.94 55.58L144.08 55.70L144.07 59.16L119.96 59.07Z"/><path d="M5 45 C97 44,106 93,187 57" stroke="#cae872" fill="none"/><path fill="#65e6a5" d="M89.55 69.95L89.46 66.05L97.68 66.10L97.59 39.69L91.09 39.68L91.17 36.80L91.19 36.81Q93.68 36.39 95.50 35.75L95.45 35.70L95.46 35.71Q97.23 35.02 98.69 34.12L98.76 34.19L102.23 34.14L102.22 66.05L109.75 66.19L109.72 69.96L89.50 69.90Z"/><path fill="#8abcef" d="M155.48 69.88L155.42 66.01L163.78 66.20L163.59 39.68L157.26 39.85L157.25 36.87L157.13 36.75Q159.74 36.45 161.56 35.81L161.43 35.68L161.43 35.68Q163.26 35.05 164.72 34.15L164.82 34.26L168.23 34.13L168.18 66.01L175.62 66.05L175.72 69.96L155.55 69.95Z"/></svg>