<svg xmlns="http://www.w3.org/2000/svg" width="200" height="100" viewBox="0,0,200,100"><rect width="100%" height="100%" fill="#ffffff"/><path fill="#77e893" d="M42.20 64.10L42.25 53.24L32.02 53.19L32.08 49.79L42.25 49.76L42.19 38.78L45.92 38.87L45.79 49.67L55.93 49.61L56.05 53.20L45.89 53.23L45.72 63.99L42.16 64.06Z"/><path d="M4 25 C114 51,82 92,196 5" stroke="#e94848" fill="none"/><path fill="#8098df" d="M23.17 67.01L23.01 66.86L23.13 66.98Q24.45 66.95 25.57 66.39L25.53 66.35L25.56 66.38Q26.58 65.72 27.42 64.69L27.51 64.77L27.54 64.81Q28.34 63.74 28.82 62.31L28.78 62.27L28.82 62.31Q29.38 60.97 29.38 59.17L29.25 59.05L29.24 59.03Q29.40 55.66 27.78 53.65L27.64 53.51L27.71 53.59Q26.07 51.55 22.71 51.55L22.63 51.47L22.77 51.61Q21.00 51.52 19.01 52.61L18.95 52.55L19.12 52.72Q17.14 53.82 15.35 56.34L15.21 56.20L15.34 56.34Q15.65 61.46 17.64 64.18L17.61 64.15L17.71 64.24Q19.58 66.84 22.99 66.84ZM32.99 37.30L30.40 40.14L30.35 40.10Q29.38 38.96 27.84 38.20L27.74 38.10L27.73 38.09Q26.13 37.27 24.45 37.27L24.48 37.31L24.52 37.35Q22.72 37.39 21.04 38.18L20.94 38.07L21.05 38.18Q19.31 38.91 18.02 40.70L17.97 40.65L18.00 40.68Q16.79 42.55 16.01 45.44L15.90 45.33L15.98 45.41Q15.13 48.22 15.07 52.48L15.10 52.51L15.11 52.52Q16.78 50.44 19.02 49.23L19.15 49.36L19.15 49.36Q21.24 48.01 23.42 48.01L23.58 48.17L23.56 48.14Q28.08 48.01 30.85 50.76L30.81 50.72L31.00 50.91Q33.60 53.48 33.60 59.02L33.72 59.15L33.61 59.03Q33.73 61.73 32.89 63.83L32.80 63.74L32.91 63.85Q32.05 65.93 30.60 67.44L30.59 67.44L30.46 67.31Q29.12 68.93 27.21 69.77L27.10 69.66L27.28 69.84Q25.23 70.53 23.04 70.53L23.12 70.60L23.10 70.58Q20.42 70.54 18.18 69.48L18.24 69.54L18.30 69.60Q15.91 68.38 14.25 66.22L14.34 66.31L14.33 66.30Q12.67 64.13 11.72 60.91L11.75 60.94L11.81 61.00Q10.70 57.62 10.70 53.31L10.81 53.43L10.81 53.43Q10.76 48.00 11.88 44.22L11.81 44.15L11.86 44.20Q12.95 40.39 14.85 38.01L14.98 38.13L14.89 38.05Q16.83 35.70 19.26 34.61L19.20 34.55L19.32 34.67Q21.64 33.46 24.33 33.46L24.29 33.42L24.30 33.43Q27.29 33.51 29.39 34.60L29.49 34.70L29.44 34.65Q31.45 35.65 32.96 37.27L33.03 37.34Z"/><path fill="#a864eb" d="M53.61 65.61L55.85 62.48L55.88 62.51Q57.51 64.19 59.67 65.48L59.58 65.39L59.63 65.44Q61.91 66.86 65.10 66.86L65.10 66.85L64.98 66.73Q68.33 66.84 70.41 65.07L70.29 64.96L70.33 65.00Q72.37 63.20 72.37 60.17L72.34 60.15L72.49 60.30Q72.39 58.63 71.81 57.32L71.79 57.31L71.88 57.39Q71.22 56.01 69.88 55.06L69.96 55.13L69.85 55.02Q68.56 54.13 66.38 53.63L66.38 53.63L66.41 53.66Q64.20 53.12 61.00 53.12L61.02 53.14L60.91 49.50L60.92 49.51Q63.90 49.63 65.83 49.13L65.71 49.01L65.76 49.06Q67.65 48.52 68.86 47.62L68.82 47.58L68.97 47.74Q70.19 46.85 70.69 45.62L70.63 45.55L70.60 45.52Q71.08 44.27 71.08 42.87L71.08 42.88L71.06 42.85Q71.15 40.31 69.50 38.80L69.46 38.76L69.47 38.77Q67.92 37.36 65.06 37.36L64.91 37.20L64.91 37.20Q62.75 37.28 60.87 38.29L60.79 38.21L60.87 38.29Q59.06 39.36 57.44 40.99L57.42 40.98L54.85 37.95L54.94 38.04Q56.87 35.95 59.37 34.69L59.39 34.71L59.49 34.81Q62.00 33.56 65.19 33.56L65.20 33.58L65.21 33.59Q67.52 33.54 69.48 34.16L69.37 34.05L69.52 34.20Q71.36 34.70 72.79 35.84L72.91 35.97L72.78 35.84Q74.33 37.10 75.11 38.78L74.97 38.64L75.10 38.77Q75.79 40.36 75.79 42.54L75.74 42.50L75.86 42.61Q75.75 45.75 73.96 47.82L73.99 47.85L74.08 47.95Q72.32 50.04 69.40 51.16L69.36 51.12L69.28 51.26L69.26 51.24Q71.01 51.76 72.41 52.52L72.37 52.48L72.34 52.45Q73.80 53.26 74.86 54.41L74.85 54.40L74.85 54.39Q75.86 55.50 76.45 57.01L76.40 56.96L76.43 56.99Q77.12 58.60 77.12 60.45L76.98 60.31L76.96 60.29Q77.02 62.70 76.10 64.61L76.08 64.59L76.16 64.67Q75.26 66.60 73.67 67.92L73.62 67.87L73.53 67.78Q72.10 69.26 69.98 69.96L69.87 69.86L69.82 69.81Q67.84 70.66 65.38 70.66L65.22 70.50L65.31 70.59Q63.07 70.48 61.31 70.06L61.41 70.16L61.46 70.21Q59.69 69.79 58.24 69.09L58.11 68.97L58.16 69.01Q56.65 68.25 55.50 67.36L55.64 67.50L55.62 67.48Q54.35 66.46 53.45 65.45L53.50 65.50Z"/><path fill="#d290e8" d="M86.25 64.16L86.14 53.12L75.92 53.10L76.08 49.78L86.23 49.74L86.21 38.80L89.73 38.69L89.75 49.62L99.99 49.67L100.01 53.17L89.90 53.24L89.80 64.06L86.18 64.08Z"/><path fill="#a5dd6e" d="M132.11 70.66L132.04 70.60L131.94 70.49Q126.53 70.51 123.50 65.70L123.67 65.86L123.49 65.68Q120.58 60.98 120.58 51.96L120.60 51.99L120.52 51.91Q120.49 42.86 123.51 38.15L123.53 38.17L123.61 38.25Q126.69 33.60 132.12 33.60L131.95 33.43L131.96 33.44Q137.48 33.58 140.50 38.29L140.51 38.29L140.46 38.24Q143.46 42.92 143.46 51.94L143.41 51.89L143.37 51.85Q143.54 61.04 140.52 65.86L140.33 65.67L140.36 65.69Q137.40 70.58 132.03 70.58ZM131.96 66.81L131.98 66.83L132.03 66.89Q133.64 66.93 134.90 66.06L134.85 66.01L134.90 66.06Q136.03 65.07 136.96 63.25L137.00 63.29L137.05 63.34Q138.00 61.55 138.51 58.72L138.56 58.77L138.38 58.59Q138.98 55.86 138.98 51.94L138.88 51.84L138.94 51.90Q138.97 48.01 138.47 45.21L138.50 45.25L138.45 45.20Q138.05 42.50 137.12 40.73L136.99 40.60L137.06 40.67Q136.10 38.87 134.84 38.03L134.82 38.01L134.81 38.00Q133.62 37.23 132.06 37.23L132.04 37.22L132.05 37.23Q130.40 37.15 129.12 37.99L129.14 38.01L129.10 37.97Q127.81 38.81 126.88 40.57L126.96 40.65L126.97 40.65Q126.11 42.48 125.60 45.28L125.44 45.12L125.61 45.29Q124.99 47.98 124.99 51.90L124.99 51.89L125.03 51.94Q124.96 59.70 126.89 63.26L126.91 63.28L126.90 63.27Q128.92 66.91 132.06 66.91Z"/><path fill="#74dcdc" d="M177.10 58.82L173.16 58.92L173.14 58.90Q172.69 56.60 173.17 54.84L173.19 54.86L173.22 54.89Q173.72 53.15 174.56 51.67L174.47 51.58L174.50 51.61Q175.27 50.05 176.36 48.76L176.47 48.87L176.36 48.77Q177.45 47.48 178.41 46.22L178.54 46.36L178.42 46.23Q179.38 44.98 180.02 43.69L180.00 43.67L180.14 43.81Q180.74 42.48 180.74 40.97L180.68 40.90L180.82 41.05Q180.68 38.67 179.31 37.07L179.28 37.04L179.29 37.05Q177.99 35.52 175.30 35.52L175.40 35.62L175.23 35.45Q173.46 35.53 171.80 36.40L171.78 36.37L171.86 36.46Q170.08 37.19 168.79 38.70L168.96 38.87L166.18 36.32L166.15 36.29Q167.94 34.27 170.23 32.95L170.34 33.06L170.30 33.01Q172.64 31.75 175.67 31.75L175.68 31.76L175.71 31.79Q180.02 31.73 182.63 34.11L182.63 34.11L182.56 34.05Q185.28 36.54 185.28 40.74L185.23 40.69L185.15 40.61Q185.21 42.53 184.54 44.04L184.57 44.06L184.51 44.01Q183.84 45.52 182.86 46.87L182.86 46.87L182.81 46.81Q181.82 48.15 180.73 49.46L180.86 49.60L180.73 49.46Q179.72 50.87 178.80 52.27L178.88 52.35L178.85 52.31Q177.82 53.61 177.32 55.21L177.40 55.29L177.45 55.34Q176.84 56.83 177.06 58.79L177.16 58.89ZM171.86 67.08L171.97 67.19L171.84 67.06Q171.94 65.54 172.90 64.56L172.79 64.46L172.86 64.53Q173.70 63.44 175.10 63.44L175.16 63.49L175.20 63.53Q176.61 63.55 177.59 64.53L177.47 64.40L177.51 64.45Q178.54 65.48 178.54 67.10L178.59 67.15L178.59 67.15Q178.56 68.63 177.58 69.61L177.66 69.70L177.67 69.70Q176.54 70.53 175.14 70.53L175.09 70.49L175.17 70.56Q173.86 70.65 172.91 69.67L172.78 69.54L172.85 69.62Q171.79 68.53 171.79 67.02Z"/><path fill="#89eaba" d="M100.51 69.91L100.50 66.09L108.71 66.12L108.70 39.79L102.11 39.71L102.24 36.87L102.21 36.83Q104.56 36.27 106.38 35.63L106.52 35.77L106.57 35.82Q108.21 34.99 109.66 34.10L109.82 34.25L113.26 34.16L113.34 66.16L120.58 66.01L120.71 69.95L100.58 69.98Z"/><path fill="#d88e44" d="M141.94 47.12L141.93 43.64L166.02 43.71L166.04 47.20L141.95 47.14ZM141.92 59.04L141.91 55.55L166.08 55.70L166.00 59.09L142.01 59.12Z"/></svg>