<svg xmlns="http://www.w3.org/2000/svg" width="200" height="100" viewBox="0,0,200,100"><rect width="100%" height="100%" fill="#ffffff"/><path fill="#bcf188" d="M42.25 64.16L42.25 53.24L31.93 53.10L31.96 49.67L42.10 49.62L42.19 38.78L45.87 38.82L45.76 49.63L56.00 49.68L56.10 53.25L45.86 53.20L45.75 64.01L42.24 64.14Z"/><path fill="#80e4b2" d="M87.94 70.49L88.11 70.66L88.10 70.65Q82.70 70.68 79.67 65.86L79.63 65.83L79.49 65.69Q76.56 60.96 76.56 51.94L76.49 51.87L76.55 51.93Q76.64 43.01 79.67 38.31L79.61 38.25L79.63 38.27Q82.66 33.57 88.09 33.57L88.08 33.56L87.94 33.42Q93.34 33.45 96.37 38.15L96.39 38.18L96.35 38.14Q99.51 42.98 99.51 51.99L99.41 51.89L99.38 51.86Q99.53 61.02 96.50 65.84L96.42 65.76L96.37 65.71Q93.33 70.50 87.95 70.50ZM88.09 66.95L88.04 66.90L87.94 66.80Q89.53 66.81 90.79 65.95L90.81 65.97L90.83 65.99Q92.21 65.25 93.14 63.43L92.99 63.27L93.11 63.39Q93.93 61.47 94.43 58.64L94.38 58.59L94.43 58.64Q94.89 55.77 94.89 51.85L94.99 51.95L94.97 51.93Q94.96 48.00 94.45 45.20L94.52 45.26L94.47 45.22Q93.89 42.34 92.97 40.57L93.06 40.67L93.04 40.65Q92.09 38.86 90.83 38.02L90.84 38.03L90.95 38.14Q89.65 37.26 88.08 37.26L88.03 37.21L88.01 37.18Q86.39 37.13 85.10 37.97L85.23 38.10L85.13 38.01Q83.87 38.87 82.95 40.63L83.04 40.72L83.02 40.70Q82.05 42.43 81.55 45.23L81.55 45.23L81.47 45.15Q81.05 48.04 81.05 51.96L80.99 51.89L80.95 51.85Q81.04 59.79 82.98 63.34L82.87 63.24L82.91 63.28Q84.81 66.80 87.95 66.80Z"/><path fill="#6944d8" d="M9.49 65.72L11.81 62.77L11.79 62.75Q13.24 64.26 15.40 65.49L15.50 65.59L15.45 65.55Q17.64 66.80 20.77 66.80L20.74 66.77L20.84 66.87Q22.44 66.85 23.87 66.26L23.86 66.25L23.82 66.21Q25.16 65.53 26.22 64.47L26.19 64.44L26.22 64.47Q27.36 63.48 27.97 61.96L28.04 62.03L28.04 62.03Q28.55 60.41 28.55 58.57L28.63 58.65L28.55 58.57Q28.64 54.96 26.56 52.88L26.53 52.85L26.56 52.88Q24.50 50.82 21.03 50.82L20.93 50.72L21.02 50.82Q19.16 50.80 17.85 51.36L17.90 51.41L17.73 51.24Q16.39 51.78 14.76 52.84L14.83 52.91L12.36 51.34L13.53 34.13L31.52 34.27L31.41 38.13L17.69 38.25L16.69 48.78L16.69 48.78Q17.94 48.06 19.22 47.67L19.21 47.66L19.31 47.76Q20.42 47.19 22.04 47.19L22.07 47.22L22.13 47.28Q24.43 47.28 26.44 47.95L26.39 47.90L26.43 47.93Q28.43 48.59 29.95 49.97L29.88 49.90L29.90 49.92Q31.47 51.35 32.34 53.45L32.28 53.39L32.33 53.45Q33.21 55.55 33.21 58.46L33.31 58.57L33.21 58.46Q33.16 61.33 32.15 63.57L32.28 63.69L32.31 63.73Q31.22 65.88 29.54 67.42L29.44 67.33L29.63 67.51Q27.75 68.86 25.60 69.67L25.71 69.78L25.63 69.70Q23.53 70.57 21.18 70.57L21.22 70.61L21.12 70.51Q19.01 70.53 17.25 70.11L17.28 70.15L17.26 70.12Q15.60 69.81 14.17 69.14L14.09 69.05L14.05 69.01Q12.66 68.38 11.51 67.51L11.47 67.47L11.62 67.62Q10.38 66.66 9.48 65.70L9.46 65.68Z"/><path fill="#5d5dd9" d="M56.49 69.89L56.59 66.18L64.67 66.09L64.62 39.71L58.11 39.70L58.11 36.73L58.15 36.77Q60.62 36.34 62.44 35.69L62.46 35.71L62.38 35.62Q64.39 35.18 65.85 34.28L65.72 34.15L69.33 34.23L69.36 66.18L76.67 66.11L76.58 69.82L56.56 69.96Z"/><path d="M4 42 C108 6,104 33,193 76" stroke="#f187bc" fill="none"/><path fill="#839deb" d="M108.23 64.14L108.17 53.15L97.93 53.10L98.08 49.78L108.17 49.68L108.27 38.86L111.72 38.67L111.86 49.73L121.94 49.62L121.99 53.14L111.88 53.23L111.85 64.11L108.26 64.17Z"/><path fill="#91bce7" d="M124.45 60.26L124.52 60.32L124.62 60.43Q124.46 61.78 125.05 63.01L125.11 63.07L125.17 63.14Q125.73 64.34 126.77 65.26L126.71 65.21L126.76 65.25Q127.67 66.06 129.07 66.56L129.15 66.64L129.23 66.72Q130.48 67.07 132.11 67.07L132.21 67.18L132.17 67.14Q135.33 67.16 137.26 65.43L137.36 65.53L137.25 65.41Q139.27 63.77 139.27 60.97L139.18 60.88L139.11 60.81Q139.11 59.07 138.32 57.84L138.39 57.90L138.33 57.84Q137.68 56.74 136.33 55.82L136.38 55.87L136.20 55.68Q134.99 54.89 133.23 54.14L133.10 54.01L133.15 54.06Q131.47 53.39 129.57 52.61L129.50 52.54L129.56 52.60Q127.31 53.93 125.88 55.86L125.92 55.91L125.88 55.86Q124.48 57.82 124.48 60.29ZM134.60 50.41L134.51 50.32L134.58 50.40Q136.34 48.74 137.32 46.95L137.42 47.05L137.47 47.09Q138.43 45.29 138.43 43.33L138.41 43.30L138.40 43.30Q138.37 40.57 136.74 38.75L136.80 38.81L136.67 38.68Q135.09 36.91 132.12 36.91L132.11 36.90L132.05 36.84Q129.61 36.91 127.98 38.48L128.08 38.58L127.97 38.47Q126.42 40.10 126.42 42.74L126.40 42.72L126.39 42.71Q126.35 44.29 127.02 45.44L127.02 45.44L126.97 45.39Q127.68 46.58 128.83 47.47L128.86 47.50L128.81 47.46Q129.94 48.33 131.42 49.03L131.52 49.13L131.52 49.13Q132.90 49.73 134.53 50.34ZM120.29 60.69L120.44 60.84L120.33 60.73Q120.31 58.97 120.90 57.49L120.95 57.55L121.06 57.65Q121.49 56.01 122.42 54.81L122.39 54.78L122.38 54.77Q123.46 53.72 124.66 52.80L124.71 52.84L124.54 52.68Q125.90 51.90 127.18 51.23L127.08 51.13L127.15 50.97L127.18 51.01Q125.08 49.47 123.57 47.48L123.62 47.53L123.64 47.55Q122.08 45.51 122.08 42.66L122.07 42.65L122.03 42.60Q122.16 40.66 122.94 38.98L122.92 38.96L122.89 38.93Q123.67 37.24 125.01 36.04L125.07 36.10L124.93 35.96Q126.35 34.83 128.20 34.16L128.18 34.14L128.28 34.24Q130.12 33.56 132.30 33.56L132.26 33.52L132.21 33.47Q134.61 33.51 136.45 34.21L136.35 34.11L136.40 34.16Q138.37 34.97 139.68 36.23L139.55 36.10L139.58 36.14Q140.93 37.43 141.63 39.19L141.72 39.28L141.69 39.25Q142.29 40.92 142.29 42.99L142.25 42.95L142.37 43.06Q142.32 44.41 141.84 45.70L141.95 45.81L141.80 45.66Q141.43 47.06 140.73 48.18L140.67 48.12L140.77 48.22Q139.90 49.17 139.04 50.06L139.12 50.15L139.02 50.04Q138.21 51.00 137.37 51.62L137.40 51.65L137.37 51.84L137.50 51.97Q138.56 52.53 139.68 53.40L139.62 53.33L139.65 53.37Q140.77 54.23 141.64 55.32L141.72 55.41L141.68 55.37Q142.55 56.46 143.08 57.86L143.15 57.93L143.04 57.82Q143.67 59.32 143.67 61.11L143.70 61.14L143.56 61.00Q143.59 63.05 142.75 64.78L142.82 64.86L142.79 64.82Q141.85 66.46 140.34 67.75L140.42 67.83L140.45 67.86Q138.90 69.11 136.77 69.84L136.75 69.82L136.80 69.87Q134.64 70.56 132.06 70.56L132.05 70.55L132.04 70.53Q129.55 70.56 127.39 69.84L127.39 69.83L127.42 69.86Q125.16 69.04 123.62 67.72L123.65 67.75L123.68 67.77Q122.26 66.58 121.37 64.79L121.34 64.77L121.27 64.69Q120.45 62.98 120.45 60.85Z"/><path fill="#bceb8e" d="M177.12 58.85L173.00 58.76L173.07 58.83Q172.75 56.66 173.23 54.90L173.25 54.92L173.20 54.87Q173.75 53.19 174.59 51.70L174.56 51.67L174.59 51.70Q175.38 50.17 176.48 48.88L176.48 48.88L176.47 48.87Q177.59 47.61 178.54 46.35L178.57 46.38L178.41 46.22Q179.49 45.09 180.13 43.80L180.16 43.83L180.17 43.84Q180.73 42.46 180.73 40.95L180.64 40.86L180.78 41.00Q180.82 38.80 179.45 37.21L179.45 37.21L179.28 37.04Q177.96 35.50 175.28 35.50L175.29 35.52L175.27 35.49Q173.52 35.59 171.87 36.46L171.85 36.44L171.76 36.36Q170.08 37.19 168.79 38.70L168.83 38.74L166.15 36.28L166.23 36.37Q167.98 34.31 170.28 32.99L170.24 32.96L170.28 32.99Q172.71 31.81 175.73 31.81L175.61 31.69L175.61 31.69Q180.04 31.75 182.64 34.13L182.54 34.03L182.58 34.07Q185.25 36.51 185.25 40.71L185.23 40.69L185.24 40.70Q185.12 42.44 184.45 43.95L184.61 44.11L184.51 44.01Q183.85 45.53 182.87 46.88L182.87 46.88L182.89 46.89Q181.82 48.15 180.73 49.46L180.81 49.55L180.89 49.63Q179.80 50.95 178.88 52.35L178.75 52.22L178.90 52.36Q177.90 53.69 177.40 55.29L177.33 55.23L177.45 55.34Q176.87 56.86 177.09 58.82L177.12 58.85ZM171.83 67.05L171.90 67.12L171.93 67.15Q171.85 65.45 172.80 64.47L172.77 64.44L172.74 64.41Q173.78 63.51 175.18 63.51L175.09 63.43L175.20 63.54Q176.62 63.55 177.60 64.53L177.62 64.55L177.60 64.54Q178.58 65.52 178.58 67.14L178.52 67.08L178.47 67.03Q178.57 68.64 177.59 69.62L177.52 69.55L177.66 69.70Q176.64 70.64 175.24 70.64L175.17 70.56L175.13 70.52Q173.74 70.54 172.79 69.56L172.93 69.69L172.74 69.51Q171.83 68.56 171.83 67.05Z"/><path fill="#dbdb5b" d="M141.99 47.17L141.91 43.62L166.04 43.72L165.94 47.10L141.96 47.14ZM141.96 59.07L142.05 55.69L166.11 55.72L166.05 59.14L142.03 59.14Z"/></svg>