<svg xmlns="http://www.w3.org/2000/svg" width="200" height="100" viewBox="0,0,200,100"><rect width="100%" height="100%" fill="#ffffff"/><path fill="#a56cde" d="M29.06 69.98L28.97 69.88L29.09 70.00Q29.27 64.91 29.94 60.71L29.89 60.67L29.84 60.62Q30.55 56.46 31.76 52.68L31.69 52.61L31.72 52.64Q33.01 48.94 34.88 45.42L34.82 45.35L34.85 45.38Q36.72 41.84 39.35 38.15L39.39 38.19L21.59 38.20L21.50 34.13L44.60 34.21L44.64 37.11L44.63 37.11Q41.37 41.06 39.38 44.76L39.44 44.82L39.46 44.84Q37.35 48.41 36.17 52.25L36.30 52.38L36.16 52.23Q35.03 56.12 34.50 60.40L34.50 60.40L34.57 60.47Q33.99 64.71 33.77 69.92L33.73 69.88L28.97 69.88Z"/><path d="M3 74 C87 52,116 76,180 24" stroke="#ba8ce8" fill="none"/><path fill="#bad95d" d="M89.42 69.82L89.41 66.01L97.71 66.13L97.69 39.79L91.16 39.75L91.12 36.74L91.28 36.91Q93.64 36.35 95.46 35.70L95.57 35.82L95.41 35.66Q97.38 35.16 98.83 34.27L98.81 34.25L102.22 34.12L102.37 66.19L109.57 66.00L109.67 69.91L89.41 69.81Z"/><path fill="#57dab9" d="M61.97 46.34L59.77 44.75L62.91 39.44L57.55 37.27L58.44 34.74L64.15 36.14L64.66 30.09L67.36 30.05L67.87 36.05L73.60 34.67L74.43 37.24L69.08 39.56L72.13 44.73L69.97 46.39L66.01 41.59L61.96 46.32Z"/><path fill="#af70ef" d="M120.05 47.23L120.00 43.71L144.06 43.75L143.97 47.13L119.93 47.11ZM119.95 59.06L119.91 55.55L143.96 55.58L144.07 59.16L119.91 59.03Z"/><path fill="#d094e5" d="M166.06 58.79L162.03 58.79L162.08 58.84Q161.69 56.60 162.16 54.84L162.27 54.94L162.10 54.77Q162.70 53.14 163.54 51.65L163.53 51.63L163.60 51.71Q164.41 50.20 165.50 48.91L165.41 48.81L165.43 48.83Q166.58 47.60 167.53 46.34L167.49 46.30L167.44 46.26Q168.50 45.10 169.15 43.81L169.07 43.74L169.03 43.70Q169.75 42.49 169.75 40.98L169.73 40.95L169.74 40.97Q169.81 38.80 168.44 37.20L168.29 37.05L168.27 37.03Q166.97 35.51 164.28 35.51L164.29 35.51L164.21 35.44Q162.36 35.43 160.70 36.30L160.83 36.42L160.74 36.34Q159.09 37.20 157.80 38.71L157.88 38.79L155.22 36.35L155.31 36.45Q156.99 34.32 159.28 33.00L159.28 33.00L159.29 33.01Q161.52 31.63 164.55 31.63L164.73 31.81L164.65 31.73Q168.94 31.65 171.54 34.03L171.62 34.11L171.52 34.00Q174.25 36.52 174.25 40.72L174.20 40.67L174.26 40.72Q174.18 42.49 173.51 44.00L173.52 44.01L173.48 43.98Q172.89 45.57 171.91 46.92L171.91 46.91L171.90 46.91Q170.86 48.19 169.77 49.50L169.72 49.46L169.86 49.60Q168.78 50.93 167.86 52.33L167.84 52.31L167.77 52.24Q166.84 53.63 166.34 55.23L166.42 55.31L166.35 55.24Q165.83 56.82 166.05 58.78L166.11 58.84ZM160.88 67.10L160.93 67.15L160.89 67.12Q160.92 65.52 161.87 64.54L161.88 64.55L161.83 64.50Q162.87 63.61 164.27 63.61L164.24 63.58L164.21 63.55Q165.56 63.50 166.54 64.48L166.64 64.57L166.66 64.59Q167.63 65.56 167.63 67.19L167.58 67.14L167.60 67.16Q167.64 68.71 166.66 69.69L166.64 69.67L166.58 69.61Q165.55 70.55 164.15 70.55L164.29 70.68L164.23 70.62Q162.79 70.59 161.84 69.61L161.88 69.65L161.90 69.66Q160.80 68.53 160.80 67.02Z"/></svg>