<svg xmlns="http://www.w3.org/2000/svg" width="200" height="100" viewBox="0,0,200,100"><rect width="100%" height="100%" fill="#ffffff"/><path fill="#6cd449" d="M61.93 46.29L59.71 44.69L63.00 39.52L57.50 37.21L58.35 34.65L64.11 36.09L64.70 30.13L67.39 30.08L67.77 35.95L73.57 34.64L74.38 37.19L69.01 39.48L72.16 44.76L69.96 46.37L66.10 41.67L62.03 46.40Z"/><path d="M14 46 C118 66,115 95,185 74" stroke="#dc6582" fill="none"/><path fill="#dbb646" d="M25.45 60.26L25.52 60.33L25.52 60.33Q25.60 61.92 26.19 63.15L26.11 63.07L26.12 63.08Q26.66 64.27 27.70 65.19L27.71 65.21L27.71 65.20Q28.80 66.19 30.20 66.69L30.25 66.74L30.14 66.62Q31.61 67.20 33.24 67.20L33.20 67.17L33.25 67.22Q36.42 67.25 38.35 65.52L38.36 65.53L38.25 65.41Q40.16 63.65 40.16 60.85L40.14 60.84L40.26 60.95Q40.20 59.16 39.41 57.92L39.48 57.99L39.37 57.88Q38.67 56.73 37.32 55.81L37.28 55.76L37.31 55.80Q36.01 54.92 34.25 54.16L34.26 54.17L34.11 54.02Q32.43 53.35 30.52 52.56L30.55 52.59L30.57 52.61Q28.45 54.08 27.02 56.01L27.01 56.00L27.01 55.99Q25.43 57.78 25.43 60.24ZM35.58 50.39L35.51 50.32L35.54 50.36Q37.44 48.84 38.42 47.05L38.33 46.95L38.42 47.05Q39.40 45.26 39.40 43.30L39.36 43.26L39.32 43.22Q39.38 40.59 37.76 38.77L37.79 38.80L37.82 38.83Q36.10 36.92 33.13 36.92L33.11 36.89L33.23 37.02Q30.61 36.91 28.98 38.48L29.02 38.52L28.95 38.45Q27.28 39.96 27.28 42.60L27.43 42.75L27.40 42.72Q27.41 44.35 28.08 45.50L27.94 45.36L27.96 45.38Q28.82 46.71 29.96 47.61L29.91 47.56L29.92 47.57Q31.10 48.49 32.58 49.19L32.54 49.15L32.40 49.01Q33.89 49.72 35.52 50.33ZM21.43 60.83L21.47 60.87L21.42 60.82Q21.44 59.10 22.03 57.62L22.04 57.63L21.88 57.47Q22.62 56.14 23.55 54.94L23.57 54.96L23.44 54.83Q24.50 53.76 25.70 52.84L25.69 52.83L25.67 52.81Q26.86 51.87 28.15 51.20L28.01 51.06L28.11 50.94L28.19 51.02Q26.19 49.58 24.68 47.59L24.53 47.44L24.55 47.46Q23.16 45.59 23.16 42.73L23.18 42.76L23.02 42.59Q23.05 40.55 23.83 38.87L23.96 39.00L23.87 38.91Q24.64 37.22 25.99 36.01L25.94 35.97L25.96 35.99Q27.33 34.81 29.17 34.13L29.30 34.26L29.15 34.11Q31.06 33.50 33.24 33.50L33.30 33.55L33.19 33.44Q35.61 33.51 37.46 34.21L37.53 34.28L37.38 34.13Q39.30 34.91 40.62 36.17L40.55 36.10L40.55 36.10Q42.01 37.51 42.71 39.27L42.73 39.29L42.61 39.17Q43.25 40.87 43.25 42.95L43.42 43.12L43.39 43.08Q43.37 44.47 42.90 45.76L42.80 45.66L42.88 45.74Q42.32 46.94 41.62 48.06L41.65 48.09L41.60 48.04Q40.94 49.21 40.08 50.10L40.08 50.11L40.20 50.23Q39.18 50.97 38.34 51.59L38.43 51.68L38.45 51.92L38.31 51.78Q39.67 52.64 40.79 53.50L40.73 53.44L40.78 53.50Q41.78 54.25 42.65 55.34L42.66 55.35L42.77 55.46Q43.47 56.38 44.00 57.78L44.09 57.87L44.16 57.94Q44.56 59.20 44.56 61.00L44.64 61.08L44.54 60.98Q44.67 63.13 43.83 64.86L43.72 64.75L43.83 64.86Q42.96 66.57 41.45 67.85L41.36 67.77L41.52 67.93Q40.00 69.20 37.87 69.93L37.82 69.88L37.81 69.88Q35.57 70.49 33.00 70.49L33.09 70.58L33.00 70.49Q30.63 70.64 28.47 69.91L28.41 69.85L28.46 69.90Q26.16 69.03 24.62 67.71L24.68 67.78L24.67 67.77Q23.27 66.59 22.37 64.79L22.31 64.73L22.23 64.65Q21.45 62.98 21.45 60.85Z"/><path fill="#6786e4" d="M166.18 58.91L162.05 58.81L162.16 58.92Q161.72 56.63 162.19 54.87L162.27 54.94L162.20 54.87Q162.64 53.07 163.48 51.59L163.57 51.68L163.46 51.57Q164.38 50.16 165.47 48.87L165.40 48.80L165.51 48.91Q166.55 47.57 167.50 46.31L167.42 46.23L167.43 46.24Q168.48 45.08 169.12 43.79L169.06 43.73L169.08 43.74Q169.83 42.57 169.83 41.06L169.82 41.04L169.72 40.94Q169.75 38.73 168.38 37.14L168.45 37.21L168.41 37.17Q166.98 35.52 164.29 35.52L164.31 35.53L164.21 35.44Q162.47 35.54 160.82 36.41L160.74 36.33L160.81 36.40Q159.23 37.34 157.94 38.85L157.95 38.86L155.14 36.28L155.23 36.37Q157.03 34.36 159.33 33.04L159.38 33.09L159.30 33.02Q161.70 31.81 164.73 31.81L164.73 31.81L164.59 31.67Q168.95 31.66 171.55 34.04L171.61 34.10L171.55 34.04Q174.18 36.45 174.18 40.65L174.15 40.61L174.26 40.72Q174.18 42.50 173.51 44.01L173.56 44.06L173.64 44.14Q172.80 45.48 171.82 46.82L171.98 46.98L171.82 46.82Q170.95 48.27 169.85 49.59L169.75 49.49L169.75 49.49Q168.71 50.86 167.79 52.26L167.79 52.25L167.74 52.21Q166.87 53.66 166.37 55.26L166.43 55.32L166.28 55.18Q165.91 56.91 166.14 58.87L166.04 58.77ZM160.79 67.01L160.98 67.20L160.98 67.20Q160.93 65.53 161.89 64.55L161.75 64.42L161.74 64.41Q162.75 63.49 164.15 63.49L164.13 63.47L164.25 63.58Q165.61 63.54 166.59 64.52L166.61 64.55L166.49 64.42Q167.53 65.46 167.53 67.09L167.46 67.02L167.60 67.16Q167.46 68.53 166.48 69.51L166.50 69.54L166.48 69.51Q165.64 70.63 164.24 70.63L164.25 70.64L164.22 70.61Q162.83 70.63 161.88 69.65L161.85 69.62L161.88 69.64Q160.96 68.69 160.96 67.18Z"/><path fill="#53e878" d="M98.19 52.49L98.27 52.57L98.19 52.50Q100.03 52.60 102.02 51.51L101.90 51.39L101.87 51.36Q104.01 50.42 105.81 47.85L105.71 47.75L105.80 47.84Q105.32 42.55 103.31 39.86L103.28 39.83L103.30 39.85Q101.32 37.20 97.90 37.20L97.88 37.18L97.81 37.10Q96.60 37.18 95.45 37.74L95.33 37.63L95.36 37.65Q94.36 38.36 93.52 39.39L93.50 39.37L93.44 39.31Q92.63 40.38 92.16 41.84L92.02 41.71L92.02 41.70Q91.57 43.19 91.57 44.92L91.56 44.91L91.62 44.97Q91.66 48.54 93.28 50.55L93.26 50.53L93.26 50.53Q94.98 52.65 98.34 52.65ZM87.99 66.88L90.57 63.97L90.57 63.97Q91.72 65.29 93.26 66.08L93.13 65.94L93.25 66.06Q94.65 66.71 96.33 66.71L96.46 66.83L96.42 66.79Q98.31 66.78 99.99 65.99L100.04 66.05L99.98 65.98Q101.59 65.14 102.88 63.32L102.85 63.28L102.96 63.40Q104.19 61.52 104.98 58.61L104.98 58.61L104.98 58.61Q105.87 55.81 105.93 51.50L105.79 51.36L105.94 51.50Q104.25 53.63 102.01 54.86L101.96 54.81L101.89 54.74Q99.65 55.97 97.41 55.97L97.45 56.01L97.53 56.09Q92.85 56.06 90.11 53.32L90.05 53.26L90.05 53.26Q87.30 50.50 87.30 44.96L87.28 44.95L87.31 44.98Q87.42 42.51 88.26 40.41L88.21 40.35L88.17 40.32Q88.98 38.19 90.41 36.68L90.39 36.66L90.37 36.64Q91.89 35.22 93.82 34.38L93.76 34.31L93.87 34.43Q95.78 33.57 97.91 33.57L97.85 33.50L97.95 33.60Q100.54 33.57 102.81 34.63L102.73 34.55L102.80 34.62Q105.05 35.66 106.70 37.82L106.74 37.86L106.62 37.74Q108.42 40.05 109.35 43.27L109.15 43.07L109.26 43.18Q110.24 46.45 110.24 50.76L110.23 50.76L110.20 50.73Q110.13 56.03 109.01 59.81L109.11 59.91L108.99 59.79Q107.87 63.57 105.96 65.95L105.97 65.95L105.98 65.97Q104.08 68.35 101.65 69.45L101.75 69.55L101.79 69.59Q99.29 70.62 96.60 70.62L96.61 70.63L96.56 70.57Q93.69 70.57 91.54 69.50L91.48 69.44L91.55 69.52Q89.45 68.50 87.99 66.88L87.96 66.84Z"/><path fill="#81b5e8" d="M119.90 47.08L119.99 43.70L144.00 43.69L144.08 47.24L119.96 47.15ZM119.93 59.05L120.01 55.65L144.06 55.67L143.94 59.02L120.03 59.15Z"/></svg>