<svg xmlns="http://www.w3.org/2000/svg" width="200" height="100" viewBox="0,0,200,100"><rect width="100%" height="100%" fill="#ffffff"/><path fill="#53bbde" d="M97.23 64.13L97.26 53.24L87.02 53.20L87.06 49.76L97.19 49.71L97.09 38.69L100.82 38.77L100.88 49.76L111.11 49.79L111.01 53.16L100.75 53.10L100.90 64.17L97.20 64.11Z"/><path fill="#79e6cb" d="M16.68 56.38L27.91 56.41L27.93 46.06L27.86 46.00Q27.92 44.61 28.01 42.62L27.87 42.48L28.02 42.63Q28.06 40.60 28.17 39.14L28.22 39.19L27.92 39.11L27.87 39.07Q27.24 40.39 26.51 41.63L26.53 41.64L26.52 41.63Q25.80 42.88 25.02 44.16L25.02 44.16L16.59 56.29ZM37.06 56.32L37.08 60.03L32.30 60.13L32.20 69.88L27.89 69.94L27.93 60.13L11.87 60.14L11.83 57.07L27.00 34.10L32.15 34.10L32.18 56.31L37.18 56.44Z"/><path fill="#ea5151" d="M47.73 64.13L47.59 53.07L37.42 53.10L37.44 49.64L47.60 49.61L47.68 38.77L51.37 38.83L51.34 49.71L61.50 49.68L61.41 53.07L51.35 53.19L51.23 64.00L47.59 64.00Z"/><path d="M12 87 C102 67,109 77,182 85" stroke="#e3e36d" fill="none"/><path fill="#7a7ae4" d="M111.19 65.67L113.44 62.65L113.47 62.68Q115.03 64.29 117.18 65.52L117.23 65.58L117.30 65.64Q119.30 66.72 122.43 66.72L122.54 66.83L122.43 66.71Q124.04 66.70 125.47 66.11L125.60 66.25L125.64 66.28Q126.95 65.57 128.01 64.51L128.07 64.57L127.94 64.44Q129.15 63.52 129.77 62.01L129.80 62.04L129.72 61.96Q130.25 60.37 130.25 58.52L130.30 58.56L130.23 58.50Q130.32 54.89 128.25 52.82L128.33 52.90L128.26 52.83Q126.27 50.84 122.80 50.84L122.69 50.73L122.74 50.78Q120.78 50.67 119.46 51.23L119.52 51.29L119.46 51.23Q118.20 51.85 116.58 52.91L116.53 52.86L114.18 51.40L115.25 34.10L133.22 34.22L133.22 38.19L119.37 38.17L118.36 48.70L118.33 48.67Q119.77 48.14 121.05 47.75L120.95 47.65L121.05 47.75Q122.23 47.25 123.85 47.25L123.95 47.34L123.94 47.33Q126.15 47.25 128.17 47.92L128.27 48.02L128.16 47.91Q130.14 48.55 131.65 49.92L131.79 50.06L131.70 49.97Q133.32 51.45 134.19 53.55L134.13 53.49L134.21 53.57Q134.94 55.54 134.94 58.45L135.03 58.54L135.07 58.58Q135.04 61.46 134.03 63.70L134.04 63.70L134.02 63.68Q132.92 65.83 131.24 67.37L131.34 67.47L131.29 67.43Q129.52 68.87 127.36 69.68L127.43 69.75L127.51 69.83Q125.37 70.66 123.02 70.66L122.94 70.58L122.89 70.53Q120.88 70.65 119.11 70.23L119.05 70.17L119.11 70.23Q117.35 69.81 115.92 69.14L115.78 69.00L115.80 69.01Q114.38 68.35 113.23 67.48L113.24 67.49L113.36 67.61Q112.19 66.72 111.30 65.77L111.19 65.66Z"/><path fill="#65e6e6" d="M174.35 58.83L170.30 58.81L170.28 58.79Q169.93 56.59 170.41 54.83L170.54 54.96L170.42 54.84Q170.89 53.07 171.73 51.58L171.72 51.58L171.86 51.72Q172.53 50.06 173.62 48.77L173.78 48.94L173.73 48.88Q174.78 47.56 175.74 46.30L175.76 46.33L175.69 46.25Q176.75 45.10 177.40 43.81L177.42 43.84L177.38 43.79Q178.00 42.48 178.00 40.97L177.95 40.92L177.90 40.87Q178.02 38.75 176.64 37.15L176.69 37.20L176.58 37.09Q175.32 35.60 172.63 35.60L172.51 35.49L172.63 35.61Q170.63 35.45 168.98 36.32L168.98 36.32L169.08 36.42Q167.30 37.17 166.02 38.68L166.11 38.77L163.49 36.38L163.56 36.45Q165.37 34.45 167.67 33.13L167.59 33.05L167.62 33.09Q169.92 31.77 172.94 31.77L172.84 31.67L172.84 31.67Q177.19 31.65 179.79 34.03L179.91 34.14L179.88 34.12Q182.36 36.38 182.36 40.58L182.52 40.73L182.36 40.58Q182.50 42.57 181.83 44.08L181.72 43.96L181.77 44.02Q181.18 45.61 180.20 46.96L180.10 46.85L180.21 46.96Q179.24 48.32 178.15 49.64L178.11 49.60L178.06 49.55Q176.87 50.77 175.95 52.17L176.15 52.37L176.01 52.23Q175.04 53.58 174.53 55.18L174.60 55.24L174.66 55.30Q174.20 56.94 174.42 58.90L174.39 58.86ZM169.09 67.07L169.18 67.15L169.12 67.09Q169.12 65.47 170.07 64.49L170.10 64.52L170.17 64.59Q171.03 63.52 172.43 63.52L172.48 63.56L172.41 63.50Q173.77 63.45 174.75 64.43L174.84 64.52L174.86 64.55Q175.87 65.56 175.87 67.18L175.87 67.18L175.81 67.12Q175.73 68.56 174.75 69.54L174.80 69.58L174.84 69.63Q173.87 70.61 172.47 70.61L172.50 70.64L172.37 70.51Q171.06 70.60 170.11 69.62L170.17 69.69L170.14 69.65Q169.21 68.70 169.21 67.19Z"/><path fill="#d449b1" d="M64.78 69.93L64.76 66.10L72.99 66.16L72.88 39.73L66.34 39.68L66.54 36.91L66.44 36.82Q68.94 36.40 70.76 35.75L70.72 35.71L70.71 35.70Q72.62 35.16 74.08 34.26L73.90 34.09L77.45 34.11L77.51 66.08L84.84 66.03L84.95 69.94L64.83 69.98Z"/><path fill="#b283e1" d="M136.39 47.08L136.45 43.66L160.54 43.73L160.50 47.16L136.53 47.21ZM136.47 59.08L136.52 55.66L160.47 55.59L160.61 59.20L136.51 59.13Z"/></svg>