<svg xmlns="http://www.w3.org/2000/svg" width="200" height="100" viewBox="0,0,200,100"><rect width="100%" height="100%" fill="#ffffff"/><path fill="#e485e4" d="M20.60 65.60L22.86 62.48L22.82 62.44Q24.56 64.24 26.72 65.53L26.77 65.58L26.67 65.48Q28.82 66.76 32.01 66.76L31.94 66.69L32.03 66.78Q35.32 66.83 37.40 65.06L37.40 65.07L37.33 65.00Q39.35 63.18 39.35 60.16L39.38 60.19L39.48 60.29Q39.33 58.57 38.74 57.25L38.79 57.31L38.74 57.25Q38.20 55.98 36.85 55.03L36.83 55.01L36.83 55.01Q35.63 54.19 33.44 53.69L33.31 53.55L33.36 53.61Q31.13 53.05 27.93 53.05L28.06 53.18L28.01 49.60L28.03 49.62Q30.93 49.66 32.86 49.16L32.72 49.02L32.71 49.01Q34.63 48.50 35.84 47.60L35.95 47.72L35.81 47.58Q37.12 46.78 37.62 45.55L37.68 45.61L37.57 45.50Q38.18 44.37 38.18 42.97L38.02 42.82L38.07 42.86Q38.16 40.32 36.51 38.81L36.45 38.75L36.56 38.86Q34.84 37.28 31.98 37.28L31.99 37.28L32.06 37.35Q29.81 37.35 27.93 38.35L27.88 38.30L27.93 38.35Q25.99 39.30 24.37 40.92L24.28 40.83L21.95 38.06L21.86 37.97Q23.94 36.01 26.43 34.75L26.42 34.74L26.47 34.79Q28.93 33.50 32.12 33.50L32.03 33.41L32.20 33.58Q34.56 33.58 36.52 34.20L36.49 34.17L36.37 34.05Q38.41 34.74 39.84 35.89L39.87 35.93L39.78 35.84Q41.30 37.08 42.08 38.76L41.96 38.63L42.13 38.80Q42.73 40.30 42.73 42.48L42.76 42.51L42.80 42.55Q42.77 45.77 40.98 47.84L41.11 47.97L40.97 47.83Q39.15 49.88 36.24 51.00L36.31 51.07L36.42 51.41L36.34 51.32Q38.01 51.77 39.41 52.52L39.31 52.42L39.35 52.46Q40.74 53.21 41.81 54.36L41.85 54.40L41.77 54.32Q42.85 55.48 43.44 57.00L43.44 56.99L43.43 56.98Q44.06 58.54 44.06 60.39L44.16 60.48L44.06 60.39Q44.10 62.78 43.18 64.68L43.07 64.58L43.13 64.64Q42.24 66.58 40.65 67.90L40.56 67.81L40.60 67.85Q38.94 69.10 36.81 69.80L36.86 69.84L36.91 69.89Q34.66 70.48 32.20 70.48L32.35 70.63L32.23 70.51Q30.22 70.63 28.45 70.21L28.47 70.22L28.33 70.08Q26.59 69.69 25.13 68.99L25.15 69.00L25.24 69.09Q23.81 68.42 22.66 67.52L22.59 67.45L22.64 67.50Q21.52 66.63 20.63 65.63L20.58 65.58Z"/><path fill="#58c0e3" d="M61.93 46.30L59.87 44.85L62.95 39.47L57.55 37.26L58.36 34.66L64.08 36.07L64.67 30.10L67.43 30.12L67.79 35.97L73.59 34.66L74.45 37.26L68.95 39.43L72.17 44.77L70.01 46.42L66.02 41.59L61.94 46.30Z"/><path d="M17 22 C102 61,105 64,191 83" stroke="#ed8d6d" fill="none"/><path fill="#af7de2" d="M166.06 58.79L162.09 58.85L162.04 58.80Q161.66 56.58 162.14 54.81L162.12 54.79L162.12 54.79Q162.68 53.11 163.52 51.62L163.42 51.53L163.61 51.72Q164.32 50.10 165.41 48.81L165.44 48.84L165.53 48.93Q166.49 47.51 167.44 46.25L167.47 46.28L167.57 46.38Q168.40 45.00 169.05 43.72L169.15 43.81L169.02 43.69Q169.68 42.42 169.68 40.91L169.78 41.00L169.81 41.04Q169.78 38.77 168.41 37.17L168.28 37.04L168.27 37.03Q167.00 35.53 164.31 35.53L164.25 35.48L164.27 35.50Q162.38 35.45 160.73 36.32L160.87 36.46L160.87 36.46Q159.15 37.26 157.86 38.77L157.92 38.84L155.32 36.46L155.21 36.34Q156.99 34.32 159.29 33.00L159.32 33.04L159.31 33.02Q161.52 31.63 164.55 31.63L164.72 31.80L164.63 31.71Q168.97 31.68 171.57 34.06L171.68 34.17L171.68 34.17Q174.16 36.42 174.16 40.62L174.25 40.72L174.20 40.67Q174.12 42.43 173.45 43.95L173.60 44.10L173.56 44.06Q172.91 45.59 171.93 46.93L171.95 46.95L171.87 46.88Q170.95 48.27 169.85 49.59L169.72 49.46L169.75 49.49Q168.72 50.87 167.80 52.27L167.81 52.28L167.88 52.34Q166.88 53.67 166.38 55.27L166.45 55.34L166.29 55.18Q165.81 56.80 166.03 58.76L166.05 58.78ZM160.89 67.11L160.89 67.11L160.87 67.09Q160.81 65.41 161.76 64.43L161.89 64.56L161.77 64.44Q162.70 63.44 164.10 63.44L164.11 63.45L164.16 63.49Q165.54 63.48 166.52 64.46L166.55 64.49L166.61 64.54Q167.45 65.39 167.45 67.01L167.53 67.09L167.61 67.17Q167.55 68.63 166.57 69.61L166.53 69.56L166.54 69.57Q165.50 70.49 164.10 70.49L164.11 70.50L164.25 70.65Q162.74 70.53 161.78 69.55L161.81 69.57L161.82 69.58Q160.80 68.54 160.80 67.03Z"/><path fill="#df47b9" d="M89.56 69.96L89.52 66.11L97.60 66.02L97.74 39.83L91.22 39.81L91.25 36.87L91.18 36.81Q93.71 36.42 95.53 35.78L95.51 35.76L95.38 35.63Q97.20 34.99 98.66 34.09L98.75 34.18L102.23 34.13L102.31 66.14L109.64 66.07L109.66 69.90L89.57 69.97Z"/><path fill="#e2ba45" d="M120.02 47.21L119.94 43.65L143.97 43.66L144.05 47.21L119.89 47.08ZM120.04 59.15L119.93 55.57L144.02 55.64L143.96 59.04L120.00 59.11Z"/></svg>