<svg xmlns="http://www.w3.org/2000/svg" width="200" height="100" viewBox="0,0,200,100"><rect width="100%" height="100%" fill="#ffffff"/><path d="M16 2 C85 26,85 9,180 15" stroke="#e78463" fill="none"/><path fill="#44de44" d="M120.01 47.20L120.07 43.79L144.02 43.71L144.02 47.18L119.90 47.09ZM120.08 59.19L119.89 55.53L143.91 55.53L143.96 59.05L119.94 59.05Z"/><path fill="#e48585" d="M25.45 60.25L25.59 60.40L25.50 60.30Q25.47 61.79 26.06 63.02L26.04 63.01L26.18 63.15Q26.73 64.34 27.77 65.26L27.70 65.19L27.75 65.24Q28.79 66.17 30.19 66.67L30.20 66.69L30.27 66.76Q31.53 67.12 33.16 67.12L33.22 67.19L33.26 67.22Q36.26 67.09 38.19 65.36L38.31 65.48L38.17 65.33Q40.21 63.71 40.21 60.91L40.23 60.92L40.29 60.99Q40.15 59.11 39.37 57.88L39.51 58.02L39.50 58.01Q38.58 56.64 37.24 55.72L37.24 55.72L37.21 55.70Q35.85 54.75 34.08 54.00L34.09 54.00L34.09 54.01Q32.34 53.26 30.43 52.47L30.60 52.64L30.52 52.56Q28.37 53.99 26.94 55.93L26.88 55.86L26.98 55.97Q25.62 57.97 25.62 60.43ZM35.69 50.51L35.53 50.35L35.67 50.48Q37.30 48.70 38.28 46.91L38.29 46.91L38.28 46.91Q39.31 45.17 39.31 43.21L39.37 43.27L39.34 43.23Q39.39 40.60 37.77 38.78L37.64 38.65L37.79 38.80Q36.01 36.83 33.04 36.83L33.14 36.92L33.21 36.99Q30.54 36.84 28.91 38.41L28.95 38.44L29.08 38.58Q27.36 40.05 27.36 42.68L27.42 42.74L27.34 42.66Q27.46 44.41 28.13 45.55L27.98 45.40L28.14 45.56Q28.74 46.64 29.89 47.53L29.79 47.44L29.84 47.48Q31.09 48.48 32.57 49.18L32.57 49.18L32.60 49.20Q34.03 49.85 35.65 50.47ZM21.34 60.74L21.37 60.77L21.45 60.85Q21.37 59.04 21.96 57.55L21.90 57.50L22.00 57.59Q22.56 56.08 23.49 54.88L23.51 54.90L23.43 54.82Q24.36 53.63 25.57 52.70L25.53 52.67L25.58 52.71Q26.91 51.92 28.20 51.25L28.19 51.24L28.07 50.90L28.13 50.95Q26.16 49.54 24.65 47.55L24.68 47.59L24.61 47.52Q23.15 45.58 23.15 42.73L23.15 42.73L23.08 42.66Q23.03 40.53 23.81 38.85L23.81 38.85L23.81 38.85Q24.64 37.21 25.98 36.01L26.05 36.07L26.02 36.05Q27.40 34.88 29.25 34.21L29.12 34.08L29.19 34.15Q30.97 33.41 33.15 33.41L33.25 33.51L33.31 33.57Q35.64 33.55 37.49 34.25L37.37 34.12L37.47 34.22Q39.31 34.92 40.63 36.18L40.58 36.13L40.54 36.09Q42.02 37.51 42.72 39.28L42.60 39.16L42.58 39.14Q43.42 41.04 43.42 43.12L43.25 42.94L43.41 43.10Q43.24 44.34 42.77 45.63L42.95 45.81L42.94 45.80Q42.46 47.08 41.76 48.20L41.73 48.18L41.64 48.09Q41.06 49.32 40.19 50.22L40.04 50.06L40.17 50.20Q39.22 51.01 38.38 51.63L38.41 51.66L38.39 51.86L38.41 51.88Q39.63 52.60 40.75 53.46L40.71 53.42L40.65 53.36Q41.83 54.29 42.70 55.39L42.61 55.30L42.70 55.39Q43.57 56.48 44.10 57.88L44.15 57.93L44.00 57.78Q44.68 59.33 44.68 61.12L44.64 61.08L44.62 61.06Q44.62 63.07 43.78 64.81L43.83 64.87L43.78 64.81Q42.87 66.48 41.36 67.76L41.47 67.87L41.38 67.79Q39.84 69.05 37.72 69.78L37.85 69.91L37.72 69.78Q35.69 70.61 33.11 70.61L33.10 70.60L33.15 70.64Q30.52 70.53 28.36 69.81L28.35 69.79L28.32 69.76Q26.35 69.22 24.81 67.90L24.63 67.72L24.62 67.72Q23.15 66.47 22.26 64.68L22.21 64.63L22.32 64.75Q21.43 62.96 21.43 60.83Z"/><path fill="#aae372" d="M86.55 65.55L88.88 62.51L88.81 62.43Q90.48 64.16 92.64 65.45L92.59 65.40L92.61 65.42Q94.87 66.82 98.07 66.82L98.11 66.86L97.98 66.73Q101.22 66.73 103.30 64.96L103.39 65.06L103.31 64.98Q105.45 63.28 105.45 60.26L105.40 60.21L105.36 60.17Q105.45 58.69 104.87 57.38L104.80 57.31L104.84 57.35Q104.19 55.98 102.85 55.03L102.83 55.00L102.93 55.11Q101.63 54.20 99.45 53.70L99.36 53.60L99.42 53.66Q97.24 53.17 94.05 53.17L94.04 53.16L94.05 49.64L94.04 49.63Q96.90 49.64 98.84 49.14L98.74 49.04L98.77 49.07Q100.62 48.48 101.82 47.59L101.88 47.64L101.83 47.59Q103.11 46.78 103.62 45.55L103.66 45.59L103.53 45.45Q104.18 44.37 104.18 42.97L104.20 42.99L104.17 42.97Q104.07 40.23 102.42 38.72L102.38 38.68L102.41 38.71Q100.83 37.27 97.98 37.27L98.00 37.30L98.01 37.31Q95.75 37.29 93.87 38.29L93.82 38.24L93.94 38.36Q92.05 39.36 90.43 40.98L90.34 40.89L87.85 37.95L87.79 37.89Q89.87 35.94 92.36 34.68L92.43 34.75L92.42 34.74Q94.95 33.52 98.14 33.52L98.21 33.59L98.23 33.60Q100.56 33.58 102.52 34.20L102.41 34.09L102.47 34.15Q104.34 34.68 105.77 35.83L105.84 35.90L105.78 35.84Q107.25 37.02 108.03 38.70L108.14 38.81L107.98 38.66Q108.91 40.47 108.91 42.66L108.80 42.55L108.79 42.54Q108.88 45.88 107.09 47.95L106.94 47.80L107.00 47.87Q105.34 50.07 102.43 51.19L102.32 51.08L102.42 51.41L102.32 51.31Q104.00 51.75 105.40 52.51L105.38 52.49L105.31 52.42Q106.71 53.17 107.77 54.32L107.72 54.27L107.86 54.40Q108.93 55.56 109.52 57.07L109.44 56.99L109.54 57.10Q110.02 58.50 110.02 60.35L110.10 60.43L110.11 60.44Q109.98 62.66 109.06 64.56L109.17 64.67L109.10 64.61Q108.21 66.54 106.61 67.86L106.71 67.96L106.57 67.81Q105.01 69.17 102.89 69.87L102.89 69.88L102.84 69.83Q100.74 70.56 98.28 70.56L98.22 70.50L98.27 70.55Q96.08 70.49 94.31 70.07L94.47 70.22L94.38 70.13Q92.70 69.80 91.25 69.10L91.15 69.00L91.09 68.94Q89.72 68.33 88.57 67.43L88.50 67.36L88.65 67.51Q87.48 66.59 86.58 65.58L86.54 65.54Z"/><path fill="#e5e53c" d="M166.06 58.79L162.04 58.80L161.97 58.73Q161.76 56.67 162.23 54.91L162.20 54.87L162.13 54.80Q162.65 53.08 163.49 51.60L163.47 51.57L163.45 51.56Q164.34 50.12 165.43 48.83L165.47 48.87L165.44 48.85Q166.50 47.52 167.45 46.26L167.42 46.23L167.44 46.25Q168.51 45.11 169.15 43.82L169.00 43.67L169.18 43.84Q169.74 42.47 169.74 40.96L169.83 41.05L169.81 41.04Q169.70 38.68 168.32 37.08L168.45 37.21L168.38 37.14Q166.98 35.52 164.30 35.52L164.22 35.44L164.33 35.55Q162.52 35.59 160.87 36.46L160.84 36.44L160.78 36.37Q159.09 37.20 157.80 38.72L157.85 38.77L155.23 36.36L155.26 36.39Q157.04 34.36 159.33 33.05L159.24 32.96L159.40 33.12Q161.53 31.63 164.55 31.63L164.60 31.68L164.57 31.65Q169.08 31.79 171.68 34.17L171.67 34.16L171.70 34.19Q174.14 36.40 174.14 40.60L174.12 40.58L174.27 40.74Q174.28 42.60 173.61 44.11L173.50 43.99L173.45 43.94Q172.92 45.60 171.94 46.94L171.97 46.97L171.86 46.86Q170.88 48.21 169.79 49.53L169.81 49.55L169.84 49.58Q168.64 50.79 167.72 52.19L167.78 52.25L167.86 52.33Q166.97 53.76 166.46 55.35L166.41 55.31L166.37 55.26Q165.94 56.93 166.16 58.89L166.14 58.87ZM160.86 67.08L160.93 67.15L160.98 67.20Q160.81 65.41 161.76 64.43L161.76 64.43L161.74 64.41Q162.73 63.46 164.13 63.46L164.16 63.49L164.27 63.60Q165.66 63.59 166.64 64.57L166.56 64.49L166.60 64.54Q167.53 65.47 167.53 67.09L167.55 67.11L167.61 67.17Q167.45 68.52 166.47 69.50L166.53 69.56L166.55 69.58Q165.62 70.61 164.22 70.61L164.20 70.59L164.18 70.57Q162.72 70.52 161.77 69.54L161.82 69.59L161.83 69.59Q160.86 68.59 160.86 67.08Z"/><path fill="#77ea51" d="M59.67 57.72L59.51 54.04L72.46 54.11L72.40 57.58L59.49 57.55Z"/></svg>